<?xml version="1.0" encoding="utf-8"?>
<!-- Generator: Adobe Illustrator 18.1.0, SVG Export Plug-In . SVG Version: 6.00 Build 0)  -->
<!DOCTYPE svg PUBLIC "-//W3C//DTD SVG 1.1//EN" "http://www.w3.org/Graphics/SVG/1.1/DTD/svg11.dtd">
<svg version="1.1" id="Layer_1" xmlns="http://www.w3.org/2000/svg" xmlns:xlink="http://www.w3.org/1999/xlink" x="0px" y="0px"
	 viewBox="0 0 1024 768" enable-background="new 0 0 1024 768" xml:space="preserve">
<g enable-background="new    ">
	<path fill="#B54A52" d="M645,402.5l-13.9,13.9c-4.6,4.6-10.3,6.8-16.7,6.8s-12.1-2.1-16.7-6.8L543.3,362v130.5
		c0,6.4-2.5,12.1-7.1,16.7c-4.6,4.6-10.3,7.1-16.7,7.1h-23.8c-6.4,0-12.1-2.5-16.7-7.1s-7.1-10.3-7.1-16.7V362l-54.4,54.4
		c-4.6,4.6-10.3,6.8-16.7,6.8c-6.4,0-11.7-2.1-16.7-6.8l-13.9-13.9c-4.6-4.6-7.1-10.3-7.1-16.7c0-6.8,2.5-12.1,7.1-16.7L491,248.2
		c4.6-4.6,10.3-6.8,16.7-6.8s11.7,2.1,16.7,6.8l120.9,120.9c4.6,4.6,6.8,10.3,6.8,16.7C652.1,392.2,649.6,397.9,645,402.5z"/>
</g>
<path fill="#B54A52" d="M828.6,702H187.1V60.6h641.5V702z M230.1,659h555.5V103.6H230.1V659z"/>
</svg>
