<?xml version="1.0" encoding="utf-8"?>
<!-- Generator: Adobe Illustrator 18.1.0, SVG Export Plug-In . SVG Version: 6.00 Build 0)  -->
<!DOCTYPE svg PUBLIC "-//W3C//DTD SVG 1.1//EN" "http://www.w3.org/Graphics/SVG/1.1/DTD/svg11.dtd">
<svg version="1.1" id="Layer_1" xmlns="http://www.w3.org/2000/svg" xmlns:xlink="http://www.w3.org/1999/xlink" x="0px" y="0px"
	 viewBox="0 0 216 216" enable-background="new 0 0 216 216" xml:space="preserve">
<rect x="26.7" y="24" fill="none" stroke="#414042" stroke-width="8" stroke-miterlimit="10" width="164.3" height="164.3"/>
<g enable-background="new    ">
	<path fill="#414042" d="M147.4,104.6c0,1.8-0.6,3.4-1.9,4.7l-34,34c-1.4,1.3-2.9,1.9-4.7,1.9c-1.8,0-3.4-0.6-4.7-1.9l-34-34
		c-1.3-1.3-2-2.8-2-4.7c0-1.8,0.7-3.4,2-4.7l3.9-3.9c1.4-1.3,2.9-1.9,4.7-1.9c1.8,0,3.4,0.6,4.7,1.9l15.3,15.3V74.6
		c0-1.8,0.7-3.4,2-4.7c1.3-1.3,2.9-2,4.7-2h6.7c1.8,0,3.4,0.7,4.7,2c1.3,1.3,2,2.9,2,4.7v36.7L132.1,96c1.3-1.3,2.9-1.9,4.7-1.9
		c1.8,0,3.4,0.6,4.7,1.9l3.9,3.9C146.7,101.2,147.4,102.8,147.4,104.6z"/>
</g>
</svg>
