<?xml version="1.0" encoding="utf-8"?>
<!-- Generator: Adobe Illustrator 18.1.1, SVG Export Plug-In . SVG Version: 6.00 Build 0)  -->
<svg version="1.1" id="Layer_1" xmlns="http://www.w3.org/2000/svg" xmlns:xlink="http://www.w3.org/1999/xlink" x="0px" y="0px"
	 viewBox="0 0 432 288" enable-background="new 0 0 432 288" xml:space="preserve">
<g>
	<defs>
		<circle id="SVGID_1_" cx="212.7" cy="143.5" r="107.8"/>
	</defs>
	<clipPath id="SVGID_2_">
		<use xlink:href="#SVGID_1_"  overflow="visible"/>
	</clipPath>
	<polygon clip-path="url(#SVGID_2_)" fill="#F1636F" points="339.7,165.4 85.9,153.1 85.9,17.5 346,31.8 	"/>
	<polygon clip-path="url(#SVGID_2_)" fill="#F1636F" points="339.1,282 85.3,269.7 85.3,134.1 345.4,148.4 	"/>
	<path clip-path="url(#SVGID_2_)" fill="#B64C53" d="M94.1,170.2l0.7,3.4c0,0,0.6,0.8,2.4,0.9l105.1,18.7l7.4,1.4l-0.7-5.3
		l-55.4-8.6l-0.4-1l-15.4-2.4l-1.3,0.4L94.1,170.2z"/>
</g>
<path fill="#283A25" d="M275.6,129.4c0,0-1.2-4.4,0.6-4.9c0,0-3.2-2.3,0-4.3c0,0-3.4-1-1-4.8c0,0-2.7-2-0.4-5.9c0,0-3.1-1.9-0.4-5.1
	c0,0-2.4-1-0.6-4.8c0,0-2.3-1-0.7-4.2c0,0-2.5-1.6-0.6-5.1c0,0-2.8-1.6-0.7-4.3c0,0-1.9-2-0.6-4.8c0,0-2.6-4.9-0.8-10.7
	c0,0-1.7-1.6-0.3-4.1c0,0-1.8-1.3-0.6-4.9c0,0-1.8-2.5-0.5-5.1c0,0-2.2-1.6-1.1-4.6l0.3-3.3c0,0-2.4,2.4-3.5,6.3c0,0-0.7,6.1-1,7.4
	l-0.7-0.3V64v1.6l-0.6-0.1v5.2l-0.7-0.6l0.3,4.6l-0.8-0.1v5.7l-0.4-0.6l0.4,1.6l-0.1,4h-0.7l0.8,1.6l-0.1,3.3l-0.7-0.4l0.6,1.5v3.9
	l-0.6-0.4l0.7,1.9v3.8l-0.7-0.2l0.4,1.5v3.3h-0.4l0.4,1.3l0.1,3.8l-0.9,0.3l0.9,1.7l-0.1,1.3l5.2,15l3.2,9.9l3.6,5.2L275.6,129.4z"
	/>
<path d="M225.9,176.4c0,0-1.1,2.3-0.4,4.9c0,0,0.7,2.8,3.7,2.7l5.2-4.6C234.5,179.4,229.4,180.3,225.9,176.4z"/>
<path fill="#FFFFFF" d="M161.7,141.5l-0.8,1.1l75.5,5.7l1.5-1.3l6.4,0.6c0,0,1,6.7,1.8,8.8L233.6,173l-2.6-0.7l-3.4,0.7h-4.4
	c0,0-4.4-3-9.1,1.1l-6,3.5l0.2,1.9l0.6,8.2h-2l-53.3-8.6l-0.4-1l-15.4-2.4l-1.3,0.4l-41.1-7.2c0,0-3.8-0.3,0-2.4L150,142
	c0,0,1.3-0.7,2.9-0.5H161.7z"/>
<path fill="#D1D3D4" d="M184.2,164.2l-32.2-3.5l-17.3,9.9l-1,0.6c0,0-1.2,1,0,1.1l31.1,4.7c0,0,3.2,0.7,5.2-0.9
	c0.1-0.1,0.1-0.1,0.2-0.2c1.9-1.8,13.9-10.4,13.9-10.4S185.5,164.3,184.2,164.2z"/>
<path fill="#E6E7E8" d="M94.1,168.6l0.7,3.4c0,0,0.6,0.8,2.4,0.9l104.9,18.7l7.4,1.4l-0.7-5.3l-55.3-8.6l-0.4-1l-15.4-2.4l-1.3,0.4
	L94.1,168.6z"/>
<path fill="#D1D3D4" d="M137.4,177.9l15,2.8c0,0,0.5,0.3,1.1-1.6l-0.4-1l-15.4-2.4l-1.3,0.4C136.6,176.2,136.3,177.3,137.4,177.9z"
	/>
<path fill="#B64C53" d="M220.5,220.4l-8.4-4.6l-1.3-1.6l-0.2-2.9l1.8,2.6l7.6,3.9c0,0-3-6,0.5-13c0,0,4.7-7.1,15.4-2.2
	c0,0,11.9,5.7,16.6,18.5c0,0,7.5,19-9.7,19.8c0,0-8.2,0-16.6-11C226.1,229.9,222,224.8,220.5,220.4z"/>
<polygon points="200.8,144 161.7,141.5 160.5,143 236.1,148.8 237.9,147 "/>
<path fill="#FFFFFF" d="M152.9,141.5l-3-63.8c0,0-0.4-4.7,2.1-5.2l42.4-4.7l45.3-3.9l9.5-0.6c0,0,4.8-1.1,4.8,3.3l-1.3,72.6
	c0,0-4,1.2-6.3,3.2c0,0-2.5,2.3-2,5.4l-82.2-6.3L152.9,141.5z"/>
<path d="M155,76.9l93.5-8.2l-0.8,72.8c0,0,0.2-0.1-1.3,1l-88.5-4.2L155,76.9z"/>
<path d="M135.6,156.8c0,0-4.6-0.6-1-2.5l19-8.9c0,0,1.7-1.2,4.3-0.6l77.9,5.5c0,0,1.9,0.2,0,2.3L223,164.7c0,0-0.4,1.5-6,0.8
	L135.6,156.8z"/>
<path fill="#111010" d="M290.2,234.4l2.9-30.9l-2.9,2.6l-0.7,4.6l-4.3,3.8l-9-0.6l-1.4-0.4v-6.3c0,0,0.7-2.1-4.3-3.8l-10.8-3.8l0,0
	l-2.9-0.9l-5.4,4.8l-0.5,2.5l-1.9-0.7l-3.8-1.3l-1.3-0.6l-15.5-6.5l0,0l-5.1-1.7l-0.2-1.1c0,0-1,0.3-2.1-0.4c0,0-1.9-0.8-1.8-3
	l-8.9-3.1l-1.5-1.9l1.8,23.8l1.8,2.6l7.2,3.5c0,0-2.3-7.9,0.9-12.6c0,0,3.5-6.5,14.1-2.9c0,0,15.2,7,18.2,20.4c0,0,3.1,9.6-1.9,15.3
	c0,0-2.8,3.5-8.1,3.3l7.9,0.5c0.6,0,1.1-0.1,1.6-0.4l6.1-4.1l5.5,1.6c0,0,18.5,6.2,24.4-0.7L290.2,234.4z"/>
<path fill="#111010" d="M246.5,233.6c0,0,5.8-3,1.2-15.2c0,0-4.7-9.6-10.5-12.1c0,0-10.4-7.1-14.6,2.1c0,0-2.7,7.2,4.2,17.3
	C226.8,225.7,237.8,239.9,246.5,233.6z"/>
<path fill="#A29A9A" d="M290.3,233.7c0,0-2.9,3.8-5.8,4.7c0,0-5.8,2.6-19.6-1.4l-6.6-1.9l-1.9,1.2c0,0,8.6,2.4,12.4,3.6
	c1.3,0.4,2.7,0.7,4,0.8c2.4,0.3,5.9,0.6,7.2,0.6c0,0,6.7,0.1,10.2-5L290.3,233.7z"/>
<path d="M214.1,174.1l0.1,2.4l0,0.9c0,0,0.8,1,1.5,1.2l0.7-0.3v-0.4c0,0,0.6-1,1-1.2c0,0,0.8-0.3,1.5-0.2c0,0,1.4-0.6,2.9-0.7
	l1.8,0.1l0.9,0l1.4,0l0.8-1.3l0.9-1.6h-4.4c0,0,0.4,0.2,0.4,0.4c0,0,0.7,1.3-1.5,2.2c0,0-4.1,0.9-6,0.4
	C216,175.9,214.5,175.3,214.1,174.1z"/>
<polygon fill="#A29A9A" points="226.6,187.4 210.1,181.3 208.3,179.5 208.1,177.6 209.7,179.5 216.6,182.5 216.4,179.9 228.8,185.2 
	"/>
<polygon points="267.8,193.2 266.3,192.6 267.8,191.2 268.9,191.3 "/>
<polygon fill="#B64C53" points="246.7,157 247.3,161.1 237.1,174.3 234.5,173.9 234.5,173.2 "/>
<polygon fill="#E6E7E8" points="246.1,156.4 246.6,160.5 236.5,173.8 233.8,173.3 233.8,172.7 "/>
<path fill="#414042" d="M246.1,159.3l-7.6,9.9c-0.1,0.1-0.2,0.1-0.3,0l-0.1-0.1c-0.1-0.1-0.1-0.2,0-0.3l7.6-9.9
	c0.1-0.1,0.2-0.1,0.3,0l0.1,0.1C246.1,159.1,246.1,159.2,246.1,159.3z"/>
<path fill="#B64C53" d="M254.9,143.7c0,0-5.7,1.1-7.7,3.8c0,0-2.8,2.4-1.5,6.5c0,0,0.5,4.3,1.5,7.1c0,0,0.7,3.7,0.8,4.7
	c0,0-0.6,2.2,0.9,5.1c0,0-0.9,1.2,0.6,4.7c0,0-0.3,0.6-0.1,1.5l11.1,4.2l0.7,0.9l1.8,1l5.1,9.2l3.3,1.3c0,0,2.3-2.8,8-2.5
	c0,0,7,0.3,7.4,4.2c0,0,2,1.8,2.6,4.2l3.2,2.3l0.4,0.7v3.4c0,0,2.4-1.3,3.3-4.6c0,0,1-2.2,1-4.2c0,0,1.3-2.9,1.1-4.2
	c0,0,1.6-2.4,1.3-5c0,0,1.4-1.9,1.2-5.2c0,0,1.3-3.1,1.1-4.9c0,0,1.2-2.9,1.1-5.1c0,0,1.5-4,1.3-5.2c0,0,1.3-3.4,1.1-5.4
	c0,0,1.7-3,1.4-5.6c0,0,1.8-4,0.6-6.1c0,0-3.1-7.4-17.4-7.9l-0.7,2.3c0,0,8.4,1.1,11.4,3.6c0,0,4,2,3.8,4.6c0,0,0.1,2-2.9,3
	c0,0-11,4.3-24.5,3.4c0,0-23.4,0.6-29.5-7.4c0,0-0.8-3.9,7.4-6.2L254.9,143.7z"/>
<path fill="#414042" d="M237.3,170.6l-0.7,1c-0.1,0.1-0.2,0.1-0.3,0l-0.1-0.1c-0.1-0.1-0.1-0.2,0-0.3l0.7-1c0.1-0.1,0.2-0.1,0.3,0
	l0.1,0.1C237.4,170.4,237.4,170.5,237.3,170.6z"/>
<path fill="#414042" d="M183.2,74.4l61.3,68l1.8,0.1c0,0,0.8-0.7,1.3-1l0.8-72.8L183.2,74.4z"/>
<path fill="#222223" d="M159,144.9l51.6,19.9l5.9,0.6c0,0,5.1,0.7,6.6-0.7l11.5-10.9c0,0,5.4-4-0.7-3.7L159,144.9z"/>
<path fill="#362E2D" d="M254.5,141.2l0.8,1.8c0,0,0.3,0.7-0.8,0.3c0,0,1-0.3,2.2,4.3H256c0,0,2,0.8,2.3,4.7v0.5
	c0,0-10.1-2.4-11.4-5.4C246.9,147.4,246.8,143.2,254.5,141.2z"/>
<path fill="#362E2D" d="M277.1,154.1l2.2-0.3l0.7-1.3c0.5-1.1,1.8-1.6,3-1.3l2,0.6l3.4-7.6l0.6-0.8l-0.3-0.5l0.9-2.7
	c0,0,8.7,0.9,11.7,3.6c0,0,7,3.7,2.2,7.1c0,0-10.6,5-26.4,4V154.1z"/>
<path fill="#283A25" d="M286.4,107.2c0,0,1.9-41.6,6.6-50.1c0,0-4.5,3.7-5.8,11.7l-5,32.3l-0.9,1.1c0,0,1.2,0.4,0,5.7
	c0,0-0.1,0.8-1.4,0.9c0,0,1.3,0.1,0.6,3.2c0,0-0.4,2.6-1.8,2.6c0,0,1.3,0.8-0.5,4.7c0,0,0.2,0.7-0.9,0.7c0,0,1.1,0.4-0.4,4.4
	c0,0,0.1,1.3-1.4,1.3c0,0,1.4,1.2,0,3.7c0,0-0.4,0.6-1.3,0.4c0,0,1.8,2.8-1.3,4.6c0,0,1.1,2.9-1,4.8l1.3,5.8l6.3-6.2l7.2-21.8
	L286.4,107.2z"/>
<path fill="#53764B" d="M306.2,57.1c0,0,2.5-1.4,6.8-10.3c0,0,0.8,11-4.9,28c0,0-17.4,62.5-19.6,68l0.3,0.5l-4,8.3l-2.3-0.4
	c-0.9-0.2-1.9,0.2-2.4,1.1l-0.9,1.5l-2.2,0.3c0,0-1.9-1.9-0.7-2.7c0,0-4.5-6.7-1.7-7.3c0,0-1.7-0.1-1.7-1.1l1.7-3.5l-0.7-1.5
	c0,0,1.3,1.4,2.2-1.9c0,0,1.1-1.9-0.4-2.8c0,0,1.9,0.7,2.8-3.9c0,0,0.7-1.2-0.9-2.4c0,0,1.3,0.2,2.1-1.3c0,0,1.9-3.1,0.1-5.1
	c0,0,2.8,0,3.3-4.5c0,0,0.4-0.6-0.9-2.2c0,0,2.4,0.3,3.1-3.5c0,0,0.9-1.3-0.5-2.9c0,0,2.2,0.8,3.2-4.1c0,0,0-1-1-2.2
	c0,0,2.1,1.2,3.1-3.5c0,0,1.1-1.8-0.3-3.9c0,0,1.9,0.9,3-3.2c0,0,1.2-1.7-0.3-3.4c0,0,1.6,0.7,2.9-3.4c0,0,1.7-3.3,0.5-5.3
	c0,0,2.4,1.1,3.9-7.1c0,0,0.4-0.7-0.8-1.9C299.3,69.6,307,63.6,306.2,57.1z"/>
<path fill="#53764B" d="M271,137.9l-1.7-31.5c0,0-1.1,1.3-1.9,11l-1.2,11.6v5.1L271,137.9z"/>
<path fill="#53764B" d="M267.5,131l-7.4-20.9c0,0-0.5-1.5,0.3-2.2c0,0-1.4,0.3-1.7-1.5c0,0-1.6-2.5-0.4-4.7c0,0-1.9,0.4-2.6-3.8
	l0.7-1.5c0,0-0.9,0.5-1.3,0c0,0-1.9-2.2-0.8-4.5c0,0-1.2,1-1.4-0.3l-1.1-2.6c0,0-0.7-1.5,0.3-1.5c0,0-1.3,0-1.3-0.6c0,0-1-2.2-0.6-3
	c0,0,0-0.5,0.3-1c0,0-1.4-0.1-1.3-1.4l-0.6-3.1c0,0-0.2-1.2,0.6-1.3c0,0-1.3-0.9-1.3-1.7c0,0-4.3-11.8-4.1-19.2c0,0-0.8-2.2,0-6
	c0,0-2.6,3.9-1.8,13l3.3,15.1l7.1,36.5l5.7,18.6L267.5,131z"/>
<path fill="#FFFFFF" d="M254,139c0,0-5.8,1.1-7.9,3.8c0,0-2.8,2.4-1.5,6.5c0,0,0.6,4.3,1.5,7.1c0,0,0.7,3.7,0.8,4.7
	c0,0-0.7,2.2,0.9,5.1c0,0-0.9,1.2,0.7,4.7c0,0-0.3,0.6-0.1,1.5l11.3,4.2l0.8,0.9l1.8,1l5.2,9.2l3.3,1.3c0,0,2.4-2.8,8.2-2.5
	c0,0,7.2,0.3,7.6,4.2c0,0,2.1,1.8,2.7,4.2l3.3,2.3l0.4,0.7v3.4c0,0,2.4-1.3,3.4-4.6c0,0,1-2.2,1-4.2c0,0,1.4-2.9,1.1-4.2
	c0,0,1.7-2.4,1.3-5c0,0,1.4-1.9,1.2-5.2c0,0,1.4-3.1,1.2-4.9c0,0,1.3-2.9,1.2-5.1c0,0,1.5-4,1.3-5.2c0,0,1.4-3.4,1.2-5.4
	c0,0,1.7-3,1.4-5.6c0,0,1.9-4,0.7-6.1c0,0-3.2-7.4-17.8-7.9l-0.7,2.3c0,0,8.7,1.1,11.7,3.6c0,0,4.1,2,3.9,4.6c0,0,0.1,2-3,3
	c0,0-11.3,4.3-25.1,3.4c0,0-24,0.6-30.2-7.4c0,0-0.8-3.9,7.6-6.2L254,139z"/>
<path fill="none" stroke="#F1F2F2" stroke-width="0.883" stroke-linecap="round" stroke-miterlimit="10" d="M246.9,152.3
	c0,0,25.1,14.4,57.2,2.3"/>
<path fill="none" stroke="#F1F2F2" stroke-width="0.883" stroke-linecap="round" stroke-miterlimit="10" d="M248.5,158.3
	c0,0,27.5,14.1,54.7,1.7"/>
<path fill="none" stroke="#F1F2F2" stroke-width="0.883" stroke-linecap="round" stroke-miterlimit="10" d="M249.3,163.5
	c0,0,27.5,14.4,53.3,1.6"/>
<path fill="none" stroke="#F1F2F2" stroke-width="0.883" stroke-linecap="round" stroke-miterlimit="10" d="M250.6,168.8
	c0,0,20.1,13.8,49.6,2.1"/>
<path fill="none" stroke="#F1F2F2" stroke-width="0.883" stroke-linecap="round" stroke-miterlimit="10" d="M298.6,176.4
	c0,0-13.7,8.8-35.4,2.5"/>
<path fill="none" stroke="#F1F2F2" stroke-width="0.883" stroke-linecap="round" stroke-miterlimit="10" d="M298.6,180.7
	c0,0-11.5,9.8-32.3,4.2"/>
<path fill="none" stroke="#F1F2F2" stroke-width="0.883" stroke-linecap="round" stroke-miterlimit="10" d="M298,185.9
	c0,0-7,4.5-11.4,4.1"/>
<path fill="none" stroke="#F1F2F2" stroke-width="0.883" stroke-linecap="round" stroke-miterlimit="10" d="M289.6,194.4
	c0,0,4.5-0.7,6.9-3.6"/>
<path fill="none" stroke="#F1F2F2" stroke-width="0.883" stroke-linecap="round" stroke-miterlimit="10" d="M292.7,197.4
	c0,0,0.7-0.7,2.7-2"/>
<path fill="#3D5738" d="M258.3,152.3c0,0-0.2-4-2.3-4.7h0.7c0,0-0.7-4-2.2-4.3c0,0,1.4,0.4,0.5-1c0,0-0.8-2.5-1.8-2.8
	c0,0,1.6,0.7,0.8-1.3c0,0,1.7-1.4,1.8-2.7c0,0,3.2-4,4.8-4.6c0,0,0.7-0.4,0-1.6l5.7-0.8l2.4-0.5c0,0,0.4,7.2,3.1,6.8
	c0,0-1.3,1.2-0.3,3.1c0,0,0.3,1.9,1.3,1.1c0,0-0.9,0.7-0.1,2.5c0,0,0.4,2.3,1.8,2.6c1.5,0.3-0.2,0-0.2,0s-1.2,2,0.8,3.8h0.6
	c0,0-0.8,0,0,1.7c0,0,0.1,0.6,1.3,0.8c0,0-0.9,0.7-0.4,2.1c0,0,0.2,1.2,1.1,1.3c0,0-0.6,0.1-0.4,0.9c0,0-14-0.1-18.8-2V152.3z"/>
<circle cx="196.2" cy="70.8" r="0.8"/>
<path fill="#A29A9A" d="M220.5,218.8l-8.4-4.6l-1.3-1.6l-0.2-2.9l1.8,2.6l7.6,3.9c0,0-3-6,0.5-13c0,0,4.7-7.1,15.4-2.2
	c0,0,11.9,5.7,16.6,18.5c0,0,7.5,19-9.7,19.8c0,0-8.2,0-16.6-11C226.1,228.3,222,223.2,220.5,218.8z"/>
<ellipse transform="matrix(0.8238 -0.5669 0.5669 0.8238 -82.8314 172.3306)" fill="#A29A9A" cx="235.8" cy="219.4" rx="13.8" ry="22.7"/>
<ellipse transform="matrix(0.8238 -0.5669 0.5669 0.8238 -82.8314 172.3306)" fill="#111010" cx="235.8" cy="219.4" rx="11.3" ry="19.2"/>
<ellipse transform="matrix(0.8238 -0.5669 0.5669 0.8238 -82.8202 172.1436)" fill="#585454" cx="235.5" cy="219.3" rx="9.2" ry="15.7"/>
<ellipse transform="matrix(0.8238 -0.5669 0.5669 0.8238 -82.8835 172.1632)" fill="#282526" cx="235.5" cy="219.4" rx="8.1" ry="13.7"/>
<ellipse transform="matrix(0.8238 -0.5669 0.5669 0.8238 -81.5769 174.9631)" fill="#FFFFFF" cx="240.6" cy="218.7" rx="2.2" ry="2.3"/>
<ellipse transform="matrix(0.8238 -0.5669 0.5669 0.8238 -86.1623 170.1095)" fill="#FFFFFF" cx="230.6" cy="223.7" rx="0.6" ry="0.7"/>
<path d="M289.4,195.1c0.7,2.6-0.8,5.1-2.4,6.3c-2,1.5-4.9,1.3-8.3,1.3c-6.1,0-11.4-2.7-11.4-6.6s4.1-9.3,10.2-9.3
	C283.5,186.8,288.4,191.3,289.4,195.1z"/>
<ellipse fill="#FFFFFF" cx="278.6" cy="194.7" rx="9.5" ry="5.3"/>
<path fill="#414042" d="M270.2,190.8l-0.3,3.9c0,0,1.3,4.2,8.6,4.4c0,0,7.7-0.1,8.3-3.7v-4.5H270.2z"/>
<ellipse cx="278.4" cy="190.8" rx="8.3" ry="4.2"/>
<ellipse fill="#414042" cx="219.3" cy="174.1" rx="4.8" ry="2.2"/>
<ellipse cx="219.2" cy="174.1" rx="4" ry="1.8"/>
<path fill="#A29A9A" d="M250.9,206.2L250.9,206.2l-1.9-0.6l-1.8-0.6l-3.3-1.4l-15.5-6.5l0,0l-5.1-1.7l-0.2-1.1c0,0-4-0.1-3.9-3.4
	l-8.9-3.1l-1.5-1.9l-0.7-8.3l6-3.5l0.1,3c0,0.2,0.1,0.3,0.2,0.5l1.8,2.1l0.9,0.2l2.5,1.1l8.8,3.7l0.9-0.7l6.5-5.7l5.3-2.2l7.4-3.6
	l11.3,4.2l1,1.3l1.5,0.7l5.2,9.2l3.3,1.3l-2,2.3l-1.1-0.1l-1.5,1.5v1.3l1.1,1.1c0,0-2,5.8,8.4,7.5c0,0,9.8,1.6,12.6-2.5
	c0,0,1.8-2.4,1-5.1l3.3,2.4l0.4,0.7v1.3v4.2l-0.6,6.5l-2.9,1.9l-4.3,2.6l-9-0.6l-1.4-0.4"/>
<path d="M228.2,185l5.4-5.1c0,0-7.6-0.5-7.6-3.1c0,0-0.4-3,6.2-3.4h1.7v-0.6l-2.9-0.4l-3.4,0.7h-3.7c0,0,0.9,1.3-0.6,2.4
	c0,0-2.9,1.5-6,0.7c0,0-1.8-0.2-2.9-2l-0.1,2.9c0,0.2,0.1,0.4,0.2,0.6l1.5,1.9c0.1,0.2,0.3,0.3,0.4,0.3L228.2,185z"/>
<polygon fill="#111010" points="224.4,196.2 224.4,191.4 225.6,188.8 245.4,195.6 247.5,201.3 247.2,205.4 "/>
<polygon fill="#A29A9A" points="235.8,178.2 248.3,182 246.1,194.4 226.6,187.4 "/>
<polygon fill="#585454" points="267.6,187.7 249.5,201.4 246.1,194.4 251.8,185 262.4,178.5 "/>
<path fill="#585454" d="M219.2,190.9l-8.9-3.1l-1.5-1.9l-0.5-6.4l1.8,1.8l16.5,6l-2.2,4.1v4.3l-1.1-0.4l-0.2-1.1
	C223.1,194.3,219.1,194.6,219.2,190.9z"/>
<ellipse transform="matrix(0.8238 -0.5669 0.5669 0.8238 -69.3983 159.6438)" fill="#111010" cx="222.1" cy="191.5" rx="2.2" ry="2.4"/>
<path fill="#414042" d="M267.4,195l-1.1-1.1v-1.3l1.6,0.6C267.8,193.2,267.5,194.5,267.4,195z"/>
<polygon fill="#A29A9A" points="267.6,191.6 268.6,191.9 268.2,192.6 266.8,192.1 267.4,191.5 "/>
<ellipse fill="#414042" cx="232.8" cy="176.4" rx="6.9" ry="3.1"/>
<ellipse fill="#111010" cx="232.8" cy="176.4" rx="5.7" ry="2.5"/>
<polygon fill="#585454" points="225.6,188.9 226.6,187.4 246.1,194.4 249.7,201.2 249.7,205.8 247.2,205 247.2,201.5 245,196.1 "/>
<polygon fill="#585454" points="249.3,201.2 276.1,208.7 285.5,208.7 293.1,203.5 292.5,210 285.3,214.8 276.4,214.2 249.3,205.7 
	"/>
<path fill="#191110" d="M291.3,154c0,0,22.7-5.8,1.6-13.2c0,0,16.2,3.2,11.3,9.6C304.2,150.4,299.6,153,291.3,154z"/>
<path fill="#E6E7E8" d="M291.3,154l-1.9,40.9l3.3,2.4l0.4,0.7v3.4c0,0,4-2,4.4-8.8c0,0,1.5-2.9,1.1-4.2c0,0,2.2-3.1,1.3-5
	c0,0,1.5-2.2,1.2-5.2c0,0,1.3-3,1.2-4.9c0,0,1.4-3.4,1.2-5.1c0,0,1.6-3.9,1.3-5.2c0,0,1.5-3.9,1.2-5.4c0,0,2-3.3,1.4-5.6
	c0,0,1.9-3.8,0.7-6.1c0,0-3.9-7.9-17.8-7.9l-0.7,2.3c0,0,15.1,1.7,15.6,8.2c0,0,0.2,0.7-1,2C304.2,150.4,298.3,153.5,291.3,154z"/>
</svg>
