<?xml version="1.0" encoding="utf-8"?>
<!-- Generator: Adobe Illustrator 18.1.0, SVG Export Plug-In . SVG Version: 6.00 Build 0)  -->
<!DOCTYPE svg PUBLIC "-//W3C//DTD SVG 1.1//EN" "http://www.w3.org/Graphics/SVG/1.1/DTD/svg11.dtd">
<svg version="1.1" id="Layer_1" xmlns="http://www.w3.org/2000/svg" xmlns:xlink="http://www.w3.org/1999/xlink" x="0px" y="0px"
	 viewBox="0 0 360 360" enable-background="new 0 0 360 360" xml:space="preserve">
<path fill="#414042" d="M341.6,343.8H18.1V20.3h323.4V343.8z M30.1,331.8h299.4V32.3H30.1V331.8z"/>
<g>
	<path fill="#414042" d="M49.4,215.5V136h9.2v79.5H49.4z"/>
	<path fill="#414042" d="M114.5,143.1c-8.7,0-15.6,2.9-20.7,8.7c-5.1,5.8-7.6,13.8-7.6,23.9c0,10.4,2.4,18.5,7.3,24.1
		c4.9,5.7,11.8,8.5,20.9,8.5c5.5,0,11.9-1,19-3v8.1c-5.5,2.1-12.3,3.1-20.4,3.1c-11.7,0-20.8-3.6-27.1-10.7
		c-6.4-7.1-9.5-17.2-9.5-30.3c0-8.2,1.5-15.4,4.6-21.5c3.1-6.2,7.5-10.9,13.3-14.3c5.8-3.3,12.6-5,20.4-5c8.3,0,15.6,1.5,21.9,4.6
		l-3.9,7.9C126.6,144.5,120.5,143.1,114.5,143.1z"/>
	<path fill="#414042" d="M219.8,175.7c0,12.7-3.2,22.7-9.7,30c-6.4,7.3-15.4,10.9-26.8,10.9c-11.7,0-20.8-3.6-27.1-10.7
		c-6.4-7.2-9.5-17.3-9.5-30.3c0-12.9,3.2-23,9.6-30.1c6.4-7.1,15.4-10.7,27.2-10.7c11.4,0,20.3,3.6,26.8,10.9
		C216.6,152.9,219.8,162.9,219.8,175.7z M156.4,175.7c0,10.8,2.3,18.9,6.9,24.5c4.6,5.6,11.3,8.4,20,8.4c8.8,0,15.5-2.8,20-8.3
		c4.5-5.5,6.7-13.7,6.7-24.5c0-10.7-2.2-18.8-6.7-24.3c-4.5-5.5-11.1-8.3-19.9-8.3c-8.8,0-15.5,2.8-20.1,8.4
		C158.7,156.9,156.4,165,156.4,175.7z"/>
	<path fill="#414042" d="M299.6,215.5h-10.6l-43.5-66.7h-0.4c0.6,7.8,0.9,15,0.9,21.5v45.2h-8.5V136H248l43.4,66.5h0.4
		c-0.1-1-0.2-4.1-0.5-9.4c-0.3-5.3-0.3-9.1-0.3-11.4V136h8.6V215.5z"/>
</g>
</svg>
