<?xml version="1.0" encoding="utf-8"?>
<!-- Generator: Adobe Illustrator 18.1.1, SVG Export Plug-In . SVG Version: 6.00 Build 0)  -->
<svg version="1.1" id="Layer_1" xmlns="http://www.w3.org/2000/svg" xmlns:xlink="http://www.w3.org/1999/xlink" x="0px" y="0px"
	 viewBox="0 0 432 288" enable-background="new 0 0 432 288" xml:space="preserve">
<g>
	<defs>
		<circle id="SVGID_1_" cx="214.6" cy="150.8" r="107.8"/>
	</defs>
	<clipPath id="SVGID_2_">
		<use xlink:href="#SVGID_1_"  overflow="visible"/>
	</clipPath>
	<polygon clip-path="url(#SVGID_2_)" fill="#91CC85" points="346.9,179.8 92.9,185.6 83.2,50.4 343.7,46.1 	"/>
	<polygon clip-path="url(#SVGID_2_)" fill="#91CC85" points="331.7,299.8 79.7,267.3 90.6,132.2 348.7,167.2 	"/>
	
		<ellipse transform="matrix(0.6404 -0.768 0.768 0.6404 2.4328 246.2339)" clip-path="url(#SVGID_2_)" fill="#8AC07F" cx="264.2" cy="120.5" rx="15.1" ry="7.6"/>
	
		<ellipse transform="matrix(0.7401 -0.6725 0.6725 0.7401 3.3189 199.7984)" clip-path="url(#SVGID_2_)" fill="#8AC07F" cx="260.2" cy="95.6" rx="15" ry="7.4"/>
	<path clip-path="url(#SVGID_2_)" fill="#8AC07F" d="M243.3,205.2l-56.7-0.7c-12.8-0.6-10.7-6.8-11.3-28l1.6-131.2
		c0.1-6.3,5.3-11.4,11.8-11.3l56.7,0.7c6.4,0.1,11.6,5.3,11.5,11.6L255,193.9C254.9,200.2,249.7,205.3,243.3,205.2z"/>
	<path clip-path="url(#SVGID_2_)" fill="#8AC07F" d="M242.6,204.1l-55.3-0.7c-12.5-0.6-10.4-6.7-11-27.7l1.6-129.6
		c0.1-6.3,5.2-11.3,11.5-11.2l55.3,0.7c6.3,0.1,11.3,5.2,11.2,11.5l-1.8,145.8C254,199.2,248.9,204.2,242.6,204.1z"/>
	<path clip-path="url(#SVGID_2_)" fill="#8AC07F" d="M249.7,180l-67.4,0.3c-0.8,0-1.4-0.6-1.4-1.4l0.5-120.8c0-0.8,0.6-1.4,1.4-1.4
		l66.7,0.4c0.8,0,1.4,0.6,1.4,1.4l0.2,120.1C251.1,179.4,250.5,180,249.7,180z"/>
	<circle clip-path="url(#SVGID_2_)" fill="#8AC07F" cx="216.5" cy="190.9" r="7.3"/>
	<path clip-path="url(#SVGID_2_)" fill="#8AC07F" d="M216.3,190.8l2.8,6.3c0,0,6.2-2.7,3.2-9.8c0,0-2.9-5-8.8-2.9L216.3,190.8z"/>
	<path clip-path="url(#SVGID_2_)" fill="#8AC07F" d="M175.7,79.8L175.7,79.8c-0.3,0-0.5-0.2-0.5-0.5l0-4.6c0-0.3,0.2-0.5,0.5-0.5
		l0,0c0.3,0,0.5,0.2,0.5,0.5l0,4.6C176.2,79.6,176,79.8,175.7,79.8z"/>
	<path clip-path="url(#SVGID_2_)" fill="#8AC07F" d="M176,69.6L176,69.6c-0.3,0-0.5-0.2-0.5-0.5l0.1-6.9c0-0.3,0.2-0.5,0.5-0.5l0,0
		c0.3,0,0.5,0.2,0.5,0.5l-0.1,6.9C176.4,69.4,176.2,69.6,176,69.6z"/>
	<path clip-path="url(#SVGID_2_)" fill="#8AC07F" d="M182.9,56.7l68.3,121.9L251,62.4l0-4c0,0,0.1-1.4-1.4-1.4L182.9,56.7z"/>
	<path clip-path="url(#SVGID_2_)" fill="#8AC07F" d="M241,243.2l0,14.3l-5.4,1.2c-12.4,2-29.1,3.4-48.9-2.2l-5.1-1.6l0.1-13.7
		c0-5.4-1.6-10.7-4.5-15.2l-21.2-32.6c-1.3-2-2-4.4-1.8-6.8l2.2-42.1c0.3-5.3,4.4-9.6,9.6-10.1c11-1.1,28.5-3.5,33-7.3
		c0,0,10.1-3.3,5.7,8.2c0,0-6.2,11-29.7,13.4l0.1,16.9c0,0,8.1,16.6,0.8,32c0,0,1.3,7.7,9.5,7.1l57.7,0.8c0,0,11.6,0.3,11.8-11.3
		l0.9-17.5l14.8-4.6l0.5,5.3l-23.3,39.8C243.2,224.8,240.8,233.9,241,243.2z"/>
	<path clip-path="url(#SVGID_2_)" fill="#8AC07F" d="M271.1,144.3c0.8,2.5-0.5,6.5-2.1,9.4c-2,3.8-8.9,2.2-13.7,5.7
		c-14.3,10.3-17.1,6.5-19.2,2.7c-2.9-5.3,2-7.3,14.1-15C257.5,142.5,267.4,133.1,271.1,144.3z"/>
	<path clip-path="url(#SVGID_2_)" fill="#8AC07F" d="M270.9,169.5c1,2.5,1.1,5.2,0,7.9c-1.5,3.5-7.7,2.5-11.7,5.5
		c-11.9,9.1-14,6.8-16.8,1.4s0.9-7.7,11.5-13.7C261.6,166.2,268,162,270.9,169.5z"/>
	<path clip-path="url(#SVGID_2_)" fill="#8AC07F" d="M255.3,174.6c0,0,14.1-18.5,13.7-21.8l-8.1-2.2l-4,5.7l-1.5,2.5L255.3,174.6z"
		/>
	<polygon clip-path="url(#SVGID_2_)" fill="#8AC07F" points="254.9,143.3 267.5,127 266.7,121.6 254.9,130.9 	"/>
	<polygon clip-path="url(#SVGID_2_)" fill="#8AC07F" points="255.4,111.1 266.2,98.7 267,93.9 260.7,93.9 255.4,101.7 	"/>
	<path clip-path="url(#SVGID_2_)" fill="#8AC07F" d="M243.5,153.8l2.2,2.9c0.7,0.9,0.5,2.2-0.5,2.8l-6.6,4.4
		c-0.5,0.4-1.2,0.2-1.6-0.3c-1.1-1.4-2.7-4.2-1-6.7l5.2-3.6C241.9,153,242.9,153.1,243.5,153.8z"/>
	<g clip-path="url(#SVGID_2_)">
		<defs>
			<path id="SVGID_3_" d="M243.5,153.8l2.2,2.9c0.7,0.9,0.5,2.2-0.5,2.8l-7.5,5c0,0-4.2-4.1-1.7-7.6l5.2-3.6
				C241.9,153,242.9,153.1,243.5,153.8z"/>
		</defs>
		<use xlink:href="#SVGID_3_"  overflow="visible" fill="#8AC07F"/>
		<clipPath id="SVGID_4_">
			<use xlink:href="#SVGID_3_"  overflow="visible"/>
		</clipPath>
		
			<ellipse transform="matrix(0.5449 0.8385 -0.8385 0.5449 241.2395 -134.2084)" clip-path="url(#SVGID_4_)" fill="#8AC07F" cx="244.3" cy="155.1" rx="2.7" ry="1.2"/>
	</g>
	<path clip-path="url(#SVGID_2_)" fill="#8AC07F" d="M249.7,176.2l2.2,2.9c0.7,0.9,0.5,2.2-0.5,2.8l-6.5,4.4
		c-0.6,0.4-1.4,0.3-1.8-0.3c-1.1-1.4-2.6-4.2-0.9-6.6l5.2-3.6C248.2,175.4,249.2,175.5,249.7,176.2z"/>
	<g clip-path="url(#SVGID_2_)">
		<defs>
			<path id="SVGID_5_" d="M249.7,176.2l2.2,2.9c0.7,0.9,0.5,2.2-0.5,2.8l-7.5,5c0,0-4.2-4.1-1.7-7.6l5.2-3.6
				C248.2,175.4,249.2,175.5,249.7,176.2z"/>
		</defs>
		<use xlink:href="#SVGID_5_"  overflow="visible" fill="#8AC07F"/>
		<clipPath id="SVGID_6_">
			<use xlink:href="#SVGID_5_"  overflow="visible"/>
		</clipPath>
		
			<ellipse transform="matrix(0.5449 0.8385 -0.8385 0.5449 262.851 -129.2549)" clip-path="url(#SVGID_6_)" fill="#8AC07F" cx="250.5" cy="177.5" rx="2.7" ry="1.2"/>
	</g>
	<g clip-path="url(#SVGID_2_)">
		<defs>
			<path id="SVGID_7_" d="M189.6,130.6l2,3.3c0,0,15.6-2.6,7.6-7.1C199.2,126.9,197.4,128.8,189.6,130.6z"/>
		</defs>
		<use xlink:href="#SVGID_7_"  overflow="visible" fill="#8AC07F"/>
		<clipPath id="SVGID_8_">
			<use xlink:href="#SVGID_7_"  overflow="visible"/>
		</clipPath>
		<path opacity="0.63" clip-path="url(#SVGID_8_)" fill="#8AC07F" d="M189.6,130.6l2,3.3c0,0,15.6-2.6,7.6-7.1
			C199.2,126.9,197.4,128.8,189.6,130.6z"/>
		
			<ellipse transform="matrix(0.5325 0.8464 -0.8464 0.5325 201.3661 -99.7974)" clip-path="url(#SVGID_8_)" fill="#8AC07F" cx="191" cy="132.4" rx="2.2" ry="0.9"/>
	</g>
	<path clip-path="url(#SVGID_2_)" fill="#8AC07F" d="M242.9,33.9l-15.2-0.2c-0.2,0-0.4-0.2-0.4-0.4l0-0.1c0-0.2,0.2-0.4,0.4-0.4
		l15.2,0.2c0.2,0,0.4,0.2,0.4,0.4l0,0.1C243.3,33.7,243.1,33.9,242.9,33.9z"/>
	<line clip-path="url(#SVGID_2_)" fill="#8AC07F" x1="177.7" y1="55.1" x2="176.5" y2="55.2"/>
	<line clip-path="url(#SVGID_2_)" fill="#8AC07F" x1="257.3" y1="53.5" x2="255.7" y2="53.5"/>
</g>
<ellipse transform="matrix(0.6404 -0.768 0.768 0.6404 3.278 244.4368)" fill="#EFBFA6" cx="262.7" cy="118.7" rx="15.1" ry="7.6"/>
<ellipse transform="matrix(0.7401 -0.6725 0.6725 0.7401 4.1412 198.3238)" fill="#EFBFA6" cx="258.7" cy="93.8" rx="15" ry="7.4"/>
<path fill="#E6E7E8" stroke="#F1F2F2" stroke-width="0.6351" stroke-miterlimit="10" d="M241.8,203.4l-56.7-0.7
	c-12.8-0.6-10.7-6.8-11.3-28l1.6-131.2c0.1-6.3,5.3-11.4,11.8-11.3l56.7,0.7c6.4,0.1,11.6,5.3,11.5,11.6l-1.8,147.6
	C253.4,198.4,248.2,203.5,241.8,203.4z"/>
<path fill="#FFFFFF" d="M241.1,202.3l-55.3-0.7c-12.5-0.6-10.4-6.7-11-27.7l1.6-129.6c0.1-6.3,5.2-11.3,11.5-11.2l55.3,0.7
	c6.3,0.1,11.3,5.2,11.2,11.5l-1.8,145.8C252.5,197.4,247.4,202.4,241.1,202.3z"/>
<path d="M248.2,178.2l-67.4,0.3c-0.8,0-1.4-0.6-1.4-1.4l0.5-120.8c0-0.8,0.6-1.4,1.4-1.4l66.7,0.4c0.8,0,1.4,0.6,1.4,1.4l0.2,120.1
	C249.6,177.6,249,178.2,248.2,178.2z"/>
<circle fill="#F1F2F2" stroke="#D1D3D4" stroke-width="0.6666" stroke-miterlimit="10" cx="215" cy="189.1" r="7.3"/>
<path fill="#FFFFFF" d="M214.9,189l2.8,6.3c0,0,6.2-2.7,3.2-9.8c0,0-2.9-5-8.8-2.9L214.9,189z"/>
<path fill="#E6E7E8" d="M174.2,78L174.2,78c-0.3,0-0.5-0.2-0.5-0.5l0-4.6c0-0.3,0.2-0.5,0.5-0.5l0,0c0.3,0,0.5,0.2,0.5,0.5l0,4.6
	C174.7,77.8,174.5,78,174.2,78z"/>
<path fill="#E6E7E8" d="M174.5,67.8L174.5,67.8c-0.3,0-0.5-0.2-0.5-0.5l0.1-6.9c0-0.3,0.2-0.5,0.5-0.5l0,0c0.3,0,0.5,0.2,0.5,0.5
	l-0.1,6.9C174.9,67.6,174.7,67.8,174.5,67.8z"/>
<path fill="#282829" d="M181.4,54.9l68.3,121.9l-0.2-116.1l0-4c0,0,0.1-1.4-1.4-1.4L181.4,54.9z"/>
<path fill="#EFBFA6" d="M239.5,241.4l0,14.3l-5.4,1.2c-12.4,2-29.1,3.4-48.9-2.2l-5.1-1.6l0.1-13.7c0-5.4-1.6-10.7-4.5-15.2
	l-21.2-32.6c-1.3-2-2-4.4-1.8-6.8l2.2-42.1c0.3-5.3,4.4-9.6,9.6-10.1c11-1.1,28.5-3.5,33-7.3c0,0,10.1-3.3,5.7,8.2
	c0,0-6.2,11-29.7,13.4l0.1,16.9c0,0,8.1,16.6,0.8,32c0,0,1.3,7.7,9.5,7.1l57.7,0.8c0,0,11.6,0.3,11.8-11.3l0.9-17.5l14.8-4.6
	l0.5,5.3L246.4,215C241.7,223,239.3,232.1,239.5,241.4z"/>
<path fill="#EFBFA6" d="M269.6,142.5c0.8,2.5-0.5,6.5-2.1,9.4c-2,3.8-8.9,2.2-13.7,5.7c-14.3,10.3-17.1,6.5-19.2,2.7
	c-2.9-5.3,2-7.3,14.1-15C256,140.7,265.9,131.3,269.6,142.5z"/>
<path fill="#EFBFA6" d="M269.4,167.7c1,2.5,1.1,5.2,0,7.9c-1.5,3.5-7.7,2.5-11.7,5.5c-11.9,9.1-14,6.8-16.8,1.4
	c-2.8-5.4,0.9-7.7,11.5-13.7C260.1,164.4,266.5,160.2,269.4,167.7z"/>
<path fill="#EFBFA6" d="M253.8,172.8c0,0,14.1-18.5,13.7-21.8l-8.1-2.2l-4,5.7L254,157L253.8,172.8z"/>
<polygon fill="#EFBFA6" points="254.4,141.5 267,125.2 266.2,119.8 254.4,129.1 "/>
<polygon fill="#EFBFA6" points="254.9,109.3 265.7,96.9 266.5,92.1 260.2,92.1 254.9,99.9 "/>
<path opacity="0.63" fill="#FFFFFF" d="M242,152l2.2,2.9c0.7,0.9,0.5,2.2-0.5,2.8l-6.6,4.4c-0.5,0.4-1.2,0.2-1.6-0.3
	c-1.1-1.4-2.7-4.2-1-6.7l5.2-3.6C240.5,151.2,241.4,151.3,242,152z"/>
<g>
	<defs>
		<path id="SVGID_9_" d="M242,152l2.2,2.9c0.7,0.9,0.5,2.2-0.5,2.8l-7.5,5c0,0-4.2-4.1-1.7-7.6l5.2-3.6
			C240.5,151.2,241.4,151.3,242,152z"/>
	</defs>
	<clipPath id="SVGID_10_">
		<use xlink:href="#SVGID_9_"  overflow="visible"/>
	</clipPath>
	
		<ellipse transform="matrix(0.5449 0.8385 -0.8385 0.5449 239.0482 -133.7732)" clip-path="url(#SVGID_10_)" fill="#FFFFFF" cx="242.8" cy="153.3" rx="2.7" ry="1.2"/>
</g>
<path opacity="0.63" fill="#FFFFFF" d="M248.2,174.4l2.2,2.9c0.7,0.9,0.5,2.2-0.5,2.8l-6.5,4.4c-0.6,0.4-1.4,0.3-1.8-0.3
	c-1.1-1.4-2.6-4.2-0.9-6.6l5.2-3.6C246.7,173.6,247.7,173.7,248.2,174.4z"/>
<g>
	<defs>
		<path id="SVGID_11_" d="M248.2,174.4l2.2,2.9c0.7,0.9,0.5,2.2-0.5,2.8l-7.5,5c0,0-4.2-4.1-1.7-7.6l5.2-3.6
			C246.7,173.6,247.7,173.7,248.2,174.4z"/>
	</defs>
	<clipPath id="SVGID_12_">
		<use xlink:href="#SVGID_11_"  overflow="visible"/>
	</clipPath>
	
		<ellipse transform="matrix(0.5449 0.8385 -0.8385 0.5449 260.6596 -128.8197)" clip-path="url(#SVGID_12_)" fill="#FFFFFF" cx="249" cy="175.7" rx="2.7" ry="1.2"/>
</g>
<g>
	<defs>
		<path id="SVGID_13_" d="M188.1,128.8l2,3.3c0,0,15.6-2.6,7.6-7.1C197.7,125.1,195.9,127,188.1,128.8z"/>
	</defs>
	<clipPath id="SVGID_14_">
		<use xlink:href="#SVGID_13_"  overflow="visible"/>
	</clipPath>
	<path opacity="0.63" clip-path="url(#SVGID_14_)" fill="#FFFFFF" d="M188.1,128.8l2,3.3c0,0,15.6-2.6,7.6-7.1
		C197.7,125.1,195.9,127,188.1,128.8z"/>
	
		<ellipse transform="matrix(0.5325 0.8464 -0.8464 0.5325 199.1419 -99.3727)" clip-path="url(#SVGID_14_)" fill="#FFFFFF" cx="189.5" cy="130.6" rx="2.2" ry="0.9"/>
</g>
<path fill="#D1D3D4" d="M241.4,32.1l-15.2-0.2c-0.2,0-0.4-0.2-0.4-0.4l0-0.1c0-0.2,0.2-0.4,0.4-0.4l15.2,0.2c0.2,0,0.4,0.2,0.4,0.4
	l0,0.1C241.8,31.9,241.6,32.1,241.4,32.1z"/>
<line fill="none" stroke="#D1D3D4" stroke-width="0.8191" stroke-miterlimit="10" x1="176.2" y1="53.3" x2="175" y2="53.4"/>
<line fill="none" stroke="#D1D3D4" stroke-width="0.9429" stroke-miterlimit="10" x1="255.8" y1="51.7" x2="254.2" y2="51.7"/>
</svg>
