<?xml version="1.0" encoding="utf-8"?>
<!-- Generator: Adobe Illustrator 18.1.0, SVG Export Plug-In . SVG Version: 6.00 Build 0)  -->
<!DOCTYPE svg PUBLIC "-//W3C//DTD SVG 1.1//EN" "http://www.w3.org/Graphics/SVG/1.1/DTD/svg11.dtd">
<svg version="1.1" id="Layer_1" xmlns="http://www.w3.org/2000/svg" xmlns:xlink="http://www.w3.org/1999/xlink" x="0px" y="0px"
	 viewBox="0 0 216 216" enable-background="new 0 0 216 216" xml:space="preserve">
<g>
	<path fill="#414042" d="M108.1,210.3C52,210.3,6.3,164.6,6.3,108.5S52,6.6,108.1,6.6S210,52.3,210,108.5S164.3,210.3,108.1,210.3z
		 M108.1,16.6c-50.7,0-91.9,41.2-91.9,91.9c0,50.7,41.2,91.9,91.9,91.9c50.7,0,91.9-41.2,91.9-91.9C200,57.8,158.8,16.6,108.1,16.6z
		"/>
</g>
<g>
	<path fill="#414042" d="M64.7,95.4c0,3.7-1.3,6.5-3.8,8.5c-2.5,2-6.1,3-10.8,3h-4.3v14.4h-4.3V84.8H51
		C60.2,84.8,64.7,88.3,64.7,95.4z M45.8,103.3h3.8c3.8,0,6.5-0.6,8.2-1.8s2.5-3.2,2.5-5.9c0-2.4-0.8-4.2-2.4-5.4
		c-1.6-1.2-4.1-1.8-7.4-1.8h-4.8V103.3z"/>
	<path fill="#414042" d="M90.5,121.3v-17.7c0-2.2-0.5-3.9-1.5-5c-1-1.1-2.6-1.7-4.8-1.7c-2.9,0-5,0.8-6.3,2.4s-2,4.1-2,7.7v14.3
		h-4.2V82.4h4.2v11.8c0,1.4-0.1,2.6-0.2,3.5H76c0.8-1.3,2-2.4,3.5-3.1c1.5-0.8,3.2-1.1,5.2-1.1c3.4,0,5.9,0.8,7.5,2.4
		s2.5,4.1,2.5,7.6v17.9H90.5z"/>
	<path fill="#414042" d="M126.8,107.6c0,4.5-1.1,8-3.4,10.5c-2.2,2.5-5.4,3.8-9.3,3.8c-2.5,0-4.6-0.6-6.5-1.7s-3.4-2.8-4.4-5
		c-1-2.2-1.6-4.7-1.6-7.6c0-4.5,1.1-7.9,3.4-10.4c2.2-2.5,5.3-3.7,9.3-3.7c3.8,0,6.9,1.3,9.1,3.8
		C125.7,99.8,126.8,103.3,126.8,107.6z M106,107.6c0,3.5,0.7,6.2,2.1,8c1.4,1.8,3.5,2.8,6.2,2.8s4.8-0.9,6.2-2.7
		c1.4-1.8,2.1-4.5,2.1-8c0-3.5-0.7-6.1-2.1-7.9c-1.4-1.8-3.5-2.7-6.2-2.7c-2.7,0-4.8,0.9-6.2,2.7C106.7,101.4,106,104.1,106,107.6z"
		/>
	<path fill="#414042" d="M143,118.4c0.7,0,1.4-0.1,2.1-0.2s1.2-0.2,1.6-0.3v3.2c-0.5,0.2-1.1,0.4-2,0.5s-1.7,0.2-2.4,0.2
		c-5.3,0-8-2.8-8-8.4V97.2h-3.9v-2l3.9-1.7l1.8-5.9h2.4v6.4h8v3.2h-8v16.1c0,1.7,0.4,2.9,1.2,3.8C140.5,118,141.6,118.4,143,118.4z"
		/>
	<path fill="#414042" d="M175.8,107.6c0,4.5-1.1,8-3.4,10.5c-2.2,2.5-5.4,3.8-9.3,3.8c-2.5,0-4.6-0.6-6.5-1.7s-3.4-2.8-4.4-5
		c-1-2.2-1.6-4.7-1.6-7.6c0-4.5,1.1-7.9,3.4-10.4c2.2-2.5,5.3-3.7,9.3-3.7c3.8,0,6.9,1.3,9.1,3.8
		C174.7,99.8,175.8,103.3,175.8,107.6z M155,107.6c0,3.5,0.7,6.2,2.1,8c1.4,1.8,3.5,2.8,6.2,2.8s4.8-0.9,6.2-2.7
		c1.4-1.8,2.1-4.5,2.1-8c0-3.5-0.7-6.1-2.1-7.9c-1.4-1.8-3.5-2.7-6.2-2.7c-2.7,0-4.8,0.9-6.2,2.7C155.7,101.4,155,104.1,155,107.6z"
		/>
</g>
</svg>
