<?xml version="1.0" encoding="utf-8"?>
<!-- Generator: Adobe Illustrator 18.1.0, SVG Export Plug-In . SVG Version: 6.00 Build 0)  -->
<!DOCTYPE svg PUBLIC "-//W3C//DTD SVG 1.1//EN" "http://www.w3.org/Graphics/SVG/1.1/DTD/svg11.dtd">
<svg version="1.1" id="Layer_1" xmlns="http://www.w3.org/2000/svg" xmlns:xlink="http://www.w3.org/1999/xlink" x="0px" y="0px"
	 viewBox="0 0 560 560" enable-background="new 0 0 560 560" xml:space="preserve">
<g>
	<path fill="#58595B" d="M82.9,460.5c0.2,0.5,0.4,1.1,0.6,1.6c0.2-0.6,0.4-1.1,0.6-1.6c0.2-0.5,0.5-1,0.8-1.6l14.7-26.7
		c0.3-0.5,0.5-0.7,0.8-0.8c0.3-0.1,0.7-0.2,1.2-0.2h4.3v43.4h-5.2v-31.9c0-0.4,0-0.9,0-1.4c0-0.5,0.1-1,0.1-1.5L86,467
		c-0.5,0.9-1.2,1.4-2.1,1.4h-0.8c-0.9,0-1.6-0.5-2.1-1.4l-15.2-27.3c0.1,0.5,0.1,1,0.1,1.5s0,1,0,1.4v31.9h-5.2v-43.4h4.3
		c0.5,0,0.9,0.1,1.2,0.2c0.3,0.1,0.6,0.4,0.8,0.8l15,26.7C82.4,459.4,82.6,459.9,82.9,460.5z"/>
	<path fill="#58595B" d="M182.6,474.6H178c-0.5,0-1-0.1-1.3-0.4c-0.3-0.3-0.6-0.6-0.7-1l-4.1-10.5h-19.5l-4.1,10.5
		c-0.1,0.4-0.4,0.7-0.7,1c-0.3,0.3-0.8,0.4-1.3,0.4h-4.5l17.4-43.4h6L182.6,474.6z M154.1,458.5h16.2l-6.8-17.7
		c-0.4-1.1-0.9-2.5-1.3-4.1c-0.2,0.8-0.4,1.6-0.7,2.3c-0.2,0.7-0.4,1.3-0.6,1.8L154.1,458.5z"/>
	<path fill="#58595B" d="M224.8,456.5v18.1H219v-43.4h12.3c2.7,0,5.1,0.3,7.1,0.8s3.7,1.4,5,2.4c1.3,1.1,2.3,2.3,2.9,3.8
		c0.6,1.5,0.9,3.1,0.9,5c0,1.5-0.2,3-0.7,4.3c-0.5,1.3-1.2,2.5-2.1,3.6c-0.9,1.1-2,2-3.4,2.7c-1.3,0.7-2.8,1.3-4.5,1.7
		c0.7,0.4,1.4,1,1.9,1.8l12.7,17.2h-5.2c-1.1,0-1.9-0.4-2.4-1.2l-11.3-15.5c-0.3-0.5-0.7-0.8-1.1-1c-0.4-0.2-1-0.3-1.8-0.3H224.8z
		 M224.8,452.2h6.2c1.7,0,3.2-0.2,4.5-0.6c1.3-0.4,2.4-1,3.3-1.8c0.9-0.8,1.5-1.7,2-2.7c0.4-1.1,0.7-2.2,0.7-3.5
		c0-2.6-0.9-4.5-2.6-5.9c-1.7-1.3-4.2-2-7.6-2h-6.4V452.2z"/>
	<path fill="#58595B" d="M315.8,431.2v4.9h-14v38.5h-5.9v-38.5h-14.1v-4.9H315.8z"/>
	<path fill="#58595B" d="M359.2,474.6h-5.9v-43.4h5.9V474.6z"/>
	<path fill="#58595B" d="M405.4,431.4c0.3,0.1,0.5,0.4,0.9,0.8l25.2,32.7c-0.1-0.5-0.1-1-0.1-1.5c0-0.5,0-1,0-1.4v-30.8h5.2v43.4h-3
		c-0.5,0-0.9-0.1-1.2-0.2s-0.6-0.4-0.9-0.8l-25.1-32.7c0,0.5,0.1,1,0.1,1.5c0,0.5,0,0.9,0,1.3v31h-5.2v-43.4h3
		C404.8,431.2,405.1,431.3,405.4,431.4z"/>
	<path fill="#58595B" d="M504.1,431.2v4.8h-20.9v14.4h16.9v4.6h-16.9v14.8h20.9v4.8h-26.8v-43.4H504.1z"/>
</g>
<path fill="#58595B" d="M434.1,361.4H145V71.4h289.1V361.4z M152.9,353.6h273.4V79.2H152.9V353.6z"/>
<polygon fill="#F9B175" points="256.7,284.1 228.7,284.1 228.1,154.5 256.7,195.2 "/>
<polygon fill="#AFE5F9" points="351.4,271 314.7,222.3 314.7,222.3 351.4,157.1 "/>
<g>
	<path fill="#58595B" d="M291.2,250.1c0.4-1,0.8-2,1.2-3c0.4-1,0.9-1.9,1.4-2.8l53.7-94.9c0.5-0.8,1-1.4,1.5-1.5
		c0.5-0.2,1.2-0.3,2.1-0.3h6.9v134l-8.7-3.7V167.6c0-1.7,0.1-3.4,0.3-5.3l-53.8,95.5c-0.9,1.7-2.2,2.5-3.9,2.5h-1.5
		c-1.6,0-2.9-0.8-3.9-2.5l-55.2-95.6c0.2,1.9,0.3,3.7,0.3,5.4v116.4H223V147.5h6.8c0.9,0,1.6,0.1,2.2,0.3c0.5,0.2,1.1,0.7,1.6,1.5
		l55.1,95C289.7,246.1,290.5,248,291.2,250.1z"/>
</g>
<g>
	<path fill="#58595B" d="M349.9,147.5L349.9,147.5c0.4,0,0.8,0,1.3,0H349.9z"/>
</g>
<g>
	<path fill="#58595B" d="M82.9,460.5c0.2,0.5,0.4,1.1,0.6,1.6c0.2-0.6,0.4-1.1,0.6-1.6c0.2-0.5,0.5-1,0.8-1.6l14.7-26.7
		c0.3-0.5,0.5-0.7,0.8-0.8c0.3-0.1,0.7-0.2,1.2-0.2h4.3v43.4h-5.2v-31.9c0-0.4,0-0.9,0-1.4c0-0.5,0.1-1,0.1-1.5L86,467
		c-0.5,0.9-1.2,1.4-2.1,1.4h-0.8c-0.9,0-1.6-0.5-2.1-1.4l-15.2-27.3c0.1,0.5,0.1,1,0.1,1.5c0,0.5,0,1,0,1.4v31.9h-5.2v-43.4h4.3
		c0.5,0,0.9,0.1,1.2,0.2c0.3,0.1,0.6,0.4,0.8,0.8l15,26.7C82.4,459.4,82.6,459.9,82.9,460.5z"/>
	<path fill="#58595B" d="M182.6,474.6H178c-0.5,0-1-0.1-1.3-0.4c-0.3-0.3-0.6-0.6-0.7-1l-4.1-10.5h-19.5l-4.1,10.5
		c-0.1,0.4-0.4,0.7-0.7,1c-0.3,0.3-0.8,0.4-1.3,0.4h-4.5l17.4-43.4h6L182.6,474.6z M154.1,458.5h16.2l-6.8-17.7
		c-0.4-1.1-0.9-2.5-1.3-4.1c-0.2,0.8-0.4,1.6-0.7,2.3c-0.2,0.7-0.4,1.3-0.6,1.8L154.1,458.5z"/>
	<path fill="#58595B" d="M224.8,456.5v18.1H219v-43.4h12.3c2.7,0,5.1,0.3,7.1,0.8c2,0.6,3.7,1.4,5,2.4c1.3,1.1,2.3,2.3,2.9,3.8
		c0.6,1.5,0.9,3.1,0.9,5c0,1.5-0.2,3-0.7,4.3c-0.5,1.3-1.2,2.5-2.1,3.6c-0.9,1.1-2,2-3.4,2.7c-1.3,0.7-2.8,1.3-4.5,1.7
		c0.7,0.4,1.4,1,1.9,1.8l12.7,17.2h-5.2c-1.1,0-1.9-0.4-2.4-1.2l-11.3-15.5c-0.3-0.5-0.7-0.8-1.1-1c-0.4-0.2-1-0.3-1.8-0.3H224.8z
		 M224.8,452.2h6.2c1.7,0,3.2-0.2,4.5-0.6c1.3-0.4,2.4-1,3.3-1.8c0.9-0.8,1.5-1.7,2-2.7c0.4-1.1,0.7-2.2,0.7-3.5
		c0-2.6-0.9-4.5-2.6-5.9c-1.7-1.3-4.2-2-7.6-2h-6.4V452.2z"/>
	<path fill="#58595B" d="M315.8,431.2v4.9h-14v38.5h-5.9v-38.5h-14.1v-4.9H315.8z"/>
	<path fill="#58595B" d="M359.2,474.6h-5.9v-43.4h5.9V474.6z"/>
	<path fill="#58595B" d="M405.4,431.4c0.3,0.1,0.5,0.4,0.9,0.8l25.2,32.7c-0.1-0.5-0.1-1-0.1-1.5c0-0.5,0-1,0-1.4v-30.8h5.2v43.4h-3
		c-0.5,0-0.9-0.1-1.2-0.2c-0.3-0.2-0.6-0.4-0.9-0.8l-25.1-32.7c0,0.5,0.1,1,0.1,1.5c0,0.5,0,0.9,0,1.3v31h-5.2v-43.4h3
		C404.7,431.2,405.1,431.3,405.4,431.4z"/>
	<path fill="#58595B" d="M504.1,431.2v4.8h-20.9v14.4h16.9v4.6h-16.9v14.8h20.9v4.8h-26.8v-43.4H504.1z"/>
</g>
<g>
	<path fill="#58595B" d="M351.2,147.5c-0.5,0-0.9,0-1.3,0.1c-0.3,0.1-0.6,0.1-0.9,0.2c-0.5,0.2-1,0.7-1.5,1.5l-37,65.3l-48.8-65.3
		c-0.6-0.8-1.1-1.3-1.6-1.5c-0.5-0.2-1.2-0.3-2.1-0.3h-4.8V183l-19.6-33.7c-0.5-0.8-1-1.4-1.6-1.5c-0.5-0.2-1.3-0.3-2.2-0.3H223
		v136.6h8.6V167.6c0-1.7-0.1-3.5-0.3-5.4l21.8,37.7v84.1h8.6v-69.3l24.9,43c1,1.7,2.3,2.5,3.9,2.5h1.5c1.7,0,3-0.8,3.9-2.5
		l15.5-27.6l38.9,51.9c0.9,1.3,2.1,1.9,3.6,1.9h4.7V147.5H351.2z M293.8,244.2c-0.5,0.9-1,1.8-1.4,2.8c-0.4,1-0.8,2-1.2,3
		c-0.7-2.1-1.5-4-2.5-5.8l-27-46.5v-28.7c0-1.7-0.1-3.6-0.3-5.5l44.4,59.3L293.8,244.2z M349.6,162.3c-0.2,1.9-0.3,3.6-0.3,5.3v98.9
		L316,222L349.6,162.3z"/>
</g>
</svg>
