<?xml version="1.0" encoding="utf-8"?>
<!-- Generator: Adobe Illustrator 18.1.1, SVG Export Plug-In . SVG Version: 6.00 Build 0)  -->
<svg version="1.1" id="Layer_1" xmlns="http://www.w3.org/2000/svg" xmlns:xlink="http://www.w3.org/1999/xlink" x="0px" y="0px"
	 viewBox="0 0 432 288" enable-background="new 0 0 432 288" xml:space="preserve">
<g>
	<defs>
		<circle id="SVGID_1_" cx="227" cy="144.6" r="108.9"/>
	</defs>
	<clipPath id="SVGID_2_">
		<use xlink:href="#SVGID_1_"  overflow="visible"/>
	</clipPath>
	<circle clip-path="url(#SVGID_2_)" fill="#6CC4B3" cx="226.4" cy="144.6" r="108.9"/>
	<g clip-path="url(#SVGID_2_)">
		<path fill="#47BCA7" d="M229.6,220.9c0,0,1.4-2.7,2.1-2.6l24.6,10.5l17.1,5.9c0,0,4,1.4,6.7,3.6l14.7,12.6c0,0,3.4,3.4,0.6,3.7
			c0,0-3,1.4-6.8-1.8c0,0-4.7-7.5-8.4-10.9c-0.3-0.3-0.5-0.5-0.8-0.8c-0.9-1-4-3.8-12.5-6.5c0,0-10.5-4-16-4.7l-6.1-1.1L229.6,220.9
			z"/>
		<path fill="#47BCA7" d="M296.1,234.9c0,0,1.5,2.3,0.6,4.3l-14.4-1.6c-0.5-0.1-0.9-0.1-1.4-0.3l-1.5-0.4l-1-0.3
			c0,0-26.5-8.8-34.1-6.8l-10.2,3.6c0,0-3.7,2.3-6.9,0.9c0,0-5.8-2.7-0.8-3.9l16.4-2.9l9.5-0.6c0,0,22.4,5,24,5.1
			C278,232.1,296.1,234.9,296.1,234.9z"/>
		<path fill="#47BCA7" d="M301.1,235c0,0,0.3-0.2-2.5-1.5c0,0-9.9-4.9-18-6.4c0,0-5.2-1.3-12.4-1.1c0,0-5,0.1-9.8-2.7
			c0,0-5.7-4.7-19.1-6.8c0,0-6.1-0.8-8-0.8l-2.8-0.1c0,0-0.3,0.1-0.7,0.6l-0.9,2.3c0,0-0.4,0.6,0.4,0.9c0,0,0.7,0.9,0.4,2.5
			l-0.8,5.1c0,0-0.1,2.2,0.3,3.2c0,0,0.3,4.1,15.9,7.6c0,0,4,0.8,5.2,0.8c0,0,2.7,0.4,5.3-2.6c0,0,3.3-3.7,4-4.7c0,0,2-3.3,4.5-2.7
			c0,0,3.3,0.3,3.4,5.8c0,0,0.2,2.9,1.3,6.3c0,0,0.5,2.8,3,3.9c0,0,6.5,3,9.4,3.4c0,0,10.5,2.7,14,0.9c0,0,2.2-0.2,4.5-7.4
			c0,0,0.7-2.7,2.9-3l0.5-1.9L301.1,235z M251,236c-3.6,2.4-15.8-2-15.8-2c-4.6-1.3-6.3-4.5-6.3-4.5c-1-2.3,0.5-6.2,0.5-6.2
			c1-5.7,3.7-5.4,3.7-5.4l3.9,0.1c7.8,0.5,17.3,4.9,17.3,4.9c3.5,1.7,3.3,3.4,3.3,3.4C257.2,230.4,251,236,251,236z M292.4,247.4
			c-1,0.8-6.9-0.1-6.9-0.1c-4,0-13.8-3.7-13.8-3.7c-4.6-2-4.3-8.7-4.3-8.7c-0.8-8.1,3.4-7.3,3.4-7.3c2.8-0.2,9.3,1.2,9.3,1.2
			c5.1,0.9,12.5,4,12.5,4c4.9,1.7,4,5.3,4,5.3C295.6,244.6,292.4,247.4,292.4,247.4z"/>
		<path opacity="0.51" fill="#47BCA7" d="M233.1,217.9c0,0-2.7-0.2-3.7,5.4c0,0-1.5,3.9-0.5,6.2c0,0,1.7,3.2,6.3,4.5
			c0,0,12.3,4.4,15.8,2c0,0,6.2-5.6,6.6-9.8c0,0,0.1-1.7-3.3-3.4c0,0-9.5-4.4-17.3-4.9L233.1,217.9z"/>
		<path opacity="0.51" fill="#47BCA7" d="M280.1,228.9c0,0-6.6-1.4-9.3-1.2c0,0-4.2-0.8-3.4,7.3c0,0-0.3,6.7,4.3,8.7
			c0,0,9.8,3.8,13.8,3.7c0,0,5.9,0.9,6.9,0.1c0,0,3.3-2.8,4.3-9.4c0,0,0.8-3.5-4-5.3C292.6,232.9,285.3,229.7,280.1,228.9z"/>
		<path opacity="0.27" fill="#47BCA7" d="M277.1,228.3l6,18.8c0,0,8.3,1.4,9.3,0.3c0,0,3.2-3.4,4.2-8.2c0,0,0.8-2.6-0.9-4.4
			c0,0-0.7-1-3.1-2C292.6,232.9,283.6,228.8,277.1,228.3z"/>
		<path opacity="0.27" fill="#47BCA7" d="M237.8,218.1l2.9,17.5c0,0,7.7,2.2,10.3,0.5c0,0,6.2-5.3,6.6-9.8c0,0-0.2-1.9-3.3-3.4
			C254.3,222.9,243.5,218.3,237.8,218.1z"/>
	</g>
	<circle clip-path="url(#SVGID_2_)" fill="#5AC0AD" cx="128.7" cy="135.2" r="28.7"/>
	<path clip-path="url(#SVGID_2_)" fill="#5AC0AD" d="M316.9,192.5H177c-2.8,0-5-2.3-5-5V98.1c0-2.8,2.3-5,5-5h139.8c2.8,0,5,2.3,5,5
		v89.4C321.9,190.3,319.6,192.5,316.9,192.5z"/>
</g>
<circle cx="241.8" cy="61.1" r="0.8"/>
<g>
	<g>
		<circle fill="#E6E7E8" cx="123.2" cy="129.3" r="34.4"/>
		<circle fill="#FED4A5" stroke="#FFFFFF" stroke-width="4.696" stroke-miterlimit="10" cx="123.2" cy="129.3" r="25.9"/>
		<circle fill="#F89725" cx="123.2" cy="129.3" r="20.8"/>
		<circle fill="#FAA71A" cx="122.7" cy="126" r="18.3"/>
		<path fill="#D1D3D4" d="M141.9,111.2l-4.8-4.3l8.5-9.4c0.6-0.7,1.7-0.8,2.4-0.1l2.4,2.1c0.6,0.6,0.7,1.6,0.1,2.2L141.9,111.2z"/>
		<path fill="#FFFFFF" d="M140.9,110.4l-4.8-4.3l8.5-9.4c0.6-0.7,1.7-0.8,2.4-0.1l2.4,2.1c0.6,0.6,0.7,1.6,0.1,2.2L140.9,110.4z"/>
	</g>
	<circle fill="#F89725" cx="133.3" cy="132.5" r="3.2"/>
	<circle fill="#F89725" cx="137.4" cy="127.7" r="1.4"/>
	<circle fill="#F89725" cx="132.5" cy="126.1" r="2.3"/>
</g>
<g>
	<path fill="#FFFFFF" d="M314.7,190.3H174.9c-2.8,0-5-2.3-5-5V95.9c0-2.8,2.3-5,5-5h139.8c2.8,0,5,2.3,5,5v89.4
		C319.8,188.1,317.5,190.3,314.7,190.3z"/>
	<path fill="#E6E7E8" d="M258.7,183.4h-28.3c-1.9,0-3.4-1.5-3.4-3.4v-20.2c0-1.9,1.5-3.4,3.4-3.4h28.3c1.9,0,3.4,1.5,3.4,3.4V180
		C262.1,181.9,260.6,183.4,258.7,183.4z"/>
	<path fill="#E6E7E8" d="M311.3,152.4H180.1c-1.1,0-1.9-0.9-1.9-1.9v-44.9c0-1.1,0.9-1.9,1.9-1.9h131.3c1.1,0,1.9,0.9,1.9,1.9v44.9
		C313.2,151.5,312.4,152.4,311.3,152.4z"/>
	<path d="M264,150.3h-46.8c-0.6,0-1.1-0.5-1.1-1.1v-4.4c0-0.6,0.5-1.1,1.1-1.1H264c0.6,0,1.1,0.5,1.1,1.1v4.4
		C265.1,149.8,264.6,150.3,264,150.3z"/>
	<path d="M276.4,150.3h-8.7c-0.6,0-1.1-0.5-1.1-1.1v-4.4c0-0.6,0.5-1.1,1.1-1.1h8.7c0.6,0,1.1,0.5,1.1,1.1v4.4
		C277.5,149.8,277,150.3,276.4,150.3z"/>
	<path d="M213.8,150.3h-8.7c-0.6,0-1.1-0.5-1.1-1.1v-4.4c0-0.6,0.5-1.1,1.1-1.1h8.7c0.6,0,1.1,0.5,1.1,1.1v4.4
		C214.9,149.8,214.4,150.3,213.8,150.3z"/>
	<path d="M196.7,141.7h-15.2c-0.6,0-1.1-0.5-1.1-1.1v-4.4c0-0.6,0.5-1.1,1.1-1.1h15.2c0.6,0,1.1,0.5,1.1,1.1v4.4
		C197.8,141.2,197.3,141.7,196.7,141.7z"/>
	<path d="M192.6,133.4h-11.1c-0.6,0-1.1-0.5-1.1-1.1v-4.4c0-0.6,0.5-1.1,1.1-1.1h11.1c0.6,0,1.1,0.5,1.1,1.1v4.4
		C193.7,132.9,193.2,133.4,192.6,133.4z"/>
	<path d="M190.2,125.6h-8.4c-0.6,0-1.1-0.5-1.1-1.1v-4.4c0-0.6,0.5-1.1,1.1-1.1h8.4c0.6,0,1.1,0.5,1.1,1.1v4.4
		C191.3,125.1,190.8,125.6,190.2,125.6z"/>
	<path d="M309.7,117.6h-8.4c-0.6,0-1.1-0.5-1.1-1.1v-4.4c0-0.6,0.5-1.1,1.1-1.1h8.4c0.6,0,1.1,0.5,1.1,1.1v4.4
		C310.8,117.1,310.3,117.6,309.7,117.6z"/>
	<path d="M309.7,133.4h-11.1c-0.6,0-1.1-0.5-1.1-1.1v-4.4c0-0.6,0.5-1.1,1.1-1.1h11.1c0.6,0,1.1,0.5,1.1,1.1v4.4
		C310.8,132.9,310.3,133.4,309.7,133.4z"/>
	<path d="M309.3,141.7h-15.2c-0.6,0-1.1-0.5-1.1-1.1v-4.4c0-0.6,0.5-1.1,1.1-1.1h15.2c0.6,0,1.1,0.5,1.1,1.1v4.4
		C310.4,141.2,309.9,141.7,309.3,141.7z"/>
	<path d="M285.1,150.3h-4.7c-0.6,0-1.1-0.5-1.1-1.1v-4.4c0-0.6,0.5-1.1,1.1-1.1h4.7c0.6,0,1.1,0.5,1.1,1.1v4.4
		C286.2,149.8,285.7,150.3,285.1,150.3z"/>
	<path d="M202.1,150.3h-4.7c-0.6,0-1.1-0.5-1.1-1.1v-4.4c0-0.6,0.5-1.1,1.1-1.1h4.7c0.6,0,1.1,0.5,1.1,1.1v4.4
		C203.2,149.8,202.7,150.3,202.1,150.3z"/>
	<path d="M205.6,141.7h-4.7c-0.6,0-1.1-0.5-1.1-1.1v-4.4c0-0.6,0.5-1.1,1.1-1.1h4.7c0.6,0,1.1,0.5,1.1,1.1v4.4
		C206.7,141.2,206.2,141.7,205.6,141.7z"/>
	<path d="M213.8,141.7h-4.7c-0.6,0-1.1-0.5-1.1-1.1v-4.4c0-0.6,0.5-1.1,1.1-1.1h4.7c0.6,0,1.1,0.5,1.1,1.1v4.4
		C214.9,141.2,214.4,141.7,213.8,141.7z"/>
	<path d="M221.9,141.7h-4.7c-0.6,0-1.1-0.5-1.1-1.1v-4.4c0-0.6,0.5-1.1,1.1-1.1h4.7c0.6,0,1.1,0.5,1.1,1.1v4.4
		C223,141.2,222.5,141.7,221.9,141.7z"/>
	<path d="M230.5,141.7h-4.7c-0.6,0-1.1-0.5-1.1-1.1v-4.4c0-0.6,0.5-1.1,1.1-1.1h4.7c0.6,0,1.1,0.5,1.1,1.1v4.4
		C231.6,141.2,231.1,141.7,230.5,141.7z"/>
	<path d="M238.7,141.7H234c-0.6,0-1.1-0.5-1.1-1.1v-4.4c0-0.6,0.5-1.1,1.1-1.1h4.7c0.6,0,1.1,0.5,1.1,1.1v4.4
		C239.9,141.2,239.4,141.7,238.7,141.7z"/>
	<path d="M247.5,141.7h-4.7c-0.6,0-1.1-0.5-1.1-1.1v-4.4c0-0.6,0.5-1.1,1.1-1.1h4.7c0.6,0,1.1,0.5,1.1,1.1v4.4
		C248.6,141.2,248.1,141.7,247.5,141.7z"/>
	<path d="M256.4,141.7h-4.7c-0.6,0-1.1-0.5-1.1-1.1v-4.4c0-0.6,0.5-1.1,1.1-1.1h4.7c0.6,0,1.1,0.5,1.1,1.1v4.4
		C257.5,141.2,257,141.7,256.4,141.7z"/>
	<path d="M264.6,141.7h-4.7c-0.6,0-1.1-0.5-1.1-1.1v-4.4c0-0.6,0.5-1.1,1.1-1.1h4.7c0.6,0,1.1,0.5,1.1,1.1v4.4
		C265.7,141.2,265.2,141.7,264.6,141.7z"/>
	<path d="M272.7,141.7h-4.7c-0.6,0-1.1-0.5-1.1-1.1v-4.4c0-0.6,0.5-1.1,1.1-1.1h4.7c0.6,0,1.1,0.5,1.1,1.1v4.4
		C273.8,141.2,273.3,141.7,272.7,141.7z"/>
	<path d="M281.1,141.7h-4.7c-0.6,0-1.1-0.5-1.1-1.1v-4.4c0-0.6,0.5-1.1,1.1-1.1h4.7c0.6,0,1.1,0.5,1.1,1.1v4.4
		C282.2,141.2,281.8,141.7,281.1,141.7z"/>
	<path d="M290.2,141.7h-4.7c-0.6,0-1.1-0.5-1.1-1.1v-4.4c0-0.6,0.5-1.1,1.1-1.1h4.7c0.6,0,1.1,0.5,1.1,1.1v4.4
		C291.3,141.2,290.8,141.7,290.2,141.7z"/>
	<path d="M202,133.4h-4.7c-0.6,0-1.1-0.5-1.1-1.1v-4.4c0-0.6,0.5-1.1,1.1-1.1h4.7c0.6,0,1.1,0.5,1.1,1.1v4.4
		C203.1,132.9,202.6,133.4,202,133.4z"/>
	<path d="M210.2,133.4h-4.7c-0.6,0-1.1-0.5-1.1-1.1v-4.4c0-0.6,0.5-1.1,1.1-1.1h4.7c0.6,0,1.1,0.5,1.1,1.1v4.4
		C211.3,132.9,210.8,133.4,210.2,133.4z"/>
	<path d="M218.3,133.4h-4.7c-0.6,0-1.1-0.5-1.1-1.1v-4.4c0-0.6,0.5-1.1,1.1-1.1h4.7c0.6,0,1.1,0.5,1.1,1.1v4.4
		C219.4,132.9,218.9,133.4,218.3,133.4z"/>
	<path d="M226.9,133.4h-4.7c-0.6,0-1.1-0.5-1.1-1.1v-4.4c0-0.6,0.5-1.1,1.1-1.1h4.7c0.6,0,1.1,0.5,1.1,1.1v4.4
		C228,132.9,227.5,133.4,226.9,133.4z"/>
	<path d="M235.1,133.4h-4.7c-0.6,0-1.1-0.5-1.1-1.1v-4.4c0-0.6,0.5-1.1,1.1-1.1h4.7c0.6,0,1.1,0.5,1.1,1.1v4.4
		C236.2,132.9,235.7,133.4,235.1,133.4z"/>
	<path d="M243.4,133.4h-4.7c-0.6,0-1.1-0.5-1.1-1.1v-4.4c0-0.6,0.5-1.1,1.1-1.1h4.7c0.6,0,1.1,0.5,1.1,1.1v4.4
		C244.5,132.9,244,133.4,243.4,133.4z"/>
	<path d="M251.8,133.4h-4.7c-0.6,0-1.1-0.5-1.1-1.1v-4.4c0-0.6,0.5-1.1,1.1-1.1h4.7c0.6,0,1.1,0.5,1.1,1.1v4.4
		C252.9,132.9,252.4,133.4,251.8,133.4z"/>
	<path d="M260,133.4h-4.7c-0.6,0-1.1-0.5-1.1-1.1v-4.4c0-0.6,0.5-1.1,1.1-1.1h4.7c0.6,0,1.1,0.5,1.1,1.1v4.4
		C261.2,132.9,260.7,133.4,260,133.4z"/>
	<path d="M268.1,133.4h-4.7c-0.6,0-1.1-0.5-1.1-1.1v-4.4c0-0.6,0.5-1.1,1.1-1.1h4.7c0.6,0,1.1,0.5,1.1,1.1v4.4
		C269.2,132.9,268.7,133.4,268.1,133.4z"/>
	<path d="M276.6,133.4h-4.7c-0.6,0-1.1-0.5-1.1-1.1v-4.4c0-0.6,0.5-1.1,1.1-1.1h4.7c0.6,0,1.1,0.5,1.1,1.1v4.4
		C277.7,132.9,277.2,133.4,276.6,133.4z"/>
	<path d="M285.6,133.4h-4.7c-0.6,0-1.1-0.5-1.1-1.1v-4.4c0-0.6,0.5-1.1,1.1-1.1h4.7c0.6,0,1.1,0.5,1.1,1.1v4.4
		C286.7,132.9,286.2,133.4,285.6,133.4z"/>
	<path d="M294.4,133.4h-4.7c-0.6,0-1.1-0.5-1.1-1.1v-4.4c0-0.6,0.5-1.1,1.1-1.1h4.7c0.6,0,1.1,0.5,1.1,1.1v4.4
		C295.5,132.9,295,133.4,294.4,133.4z"/>
	<path d="M198.5,125.6h-4.7c-0.6,0-1.1-0.5-1.1-1.1v-4.4c0-0.6,0.5-1.1,1.1-1.1h4.7c0.6,0,1.1,0.5,1.1,1.1v4.4
		C199.6,125.1,199.1,125.6,198.5,125.6z"/>
	<path d="M206.7,125.6H202c-0.6,0-1.1-0.5-1.1-1.1v-4.4c0-0.6,0.5-1.1,1.1-1.1h4.7c0.6,0,1.1,0.5,1.1,1.1v4.4
		C207.8,125.1,207.3,125.6,206.7,125.6z"/>
	<path d="M214.8,125.6h-4.7c-0.6,0-1.1-0.5-1.1-1.1v-4.4c0-0.6,0.5-1.1,1.1-1.1h4.7c0.6,0,1.1,0.5,1.1,1.1v4.4
		C215.9,125.1,215.4,125.6,214.8,125.6z"/>
	<path d="M223.4,125.6h-4.7c-0.6,0-1.1-0.5-1.1-1.1v-4.4c0-0.6,0.5-1.1,1.1-1.1h4.7c0.6,0,1.1,0.5,1.1,1.1v4.4
		C224.5,125.1,224,125.6,223.4,125.6z"/>
	<path d="M231.6,125.6h-4.7c-0.6,0-1.1-0.5-1.1-1.1v-4.4c0-0.6,0.5-1.1,1.1-1.1h4.7c0.6,0,1.1,0.5,1.1,1.1v4.4
		C232.8,125.1,232.3,125.6,231.6,125.6z"/>
	<path d="M240.7,125.6H236c-0.6,0-1.1-0.5-1.1-1.1v-4.4c0-0.6,0.5-1.1,1.1-1.1h4.7c0.6,0,1.1,0.5,1.1,1.1v4.4
		C241.8,125.1,241.3,125.6,240.7,125.6z"/>
	<path d="M249.2,125.6h-4.7c-0.6,0-1.1-0.5-1.1-1.1v-4.4c0-0.6,0.5-1.1,1.1-1.1h4.7c0.6,0,1.1,0.5,1.1,1.1v4.4
		C250.4,125.1,249.9,125.6,249.2,125.6z"/>
	<path d="M257.5,125.6h-4.7c-0.6,0-1.1-0.5-1.1-1.1v-4.4c0-0.6,0.5-1.1,1.1-1.1h4.7c0.6,0,1.1,0.5,1.1,1.1v4.4
		C258.6,125.1,258.1,125.6,257.5,125.6z"/>
	<path d="M265.6,125.6h-4.7c-0.6,0-1.1-0.5-1.1-1.1v-4.4c0-0.6,0.5-1.1,1.1-1.1h4.7c0.6,0,1.1,0.5,1.1,1.1v4.4
		C266.7,125.1,266.2,125.6,265.6,125.6z"/>
	<path d="M274,125.6h-4.7c-0.6,0-1.1-0.5-1.1-1.1v-4.4c0-0.6,0.5-1.1,1.1-1.1h4.7c0.6,0,1.1,0.5,1.1,1.1v4.4
		C275.1,125.1,274.6,125.6,274,125.6z"/>
	<path d="M283.1,125.6h-4.7c-0.6,0-1.1-0.5-1.1-1.1v-4.4c0-0.6,0.5-1.1,1.1-1.1h4.7c0.6,0,1.1,0.5,1.1,1.1v4.4
		C284.2,125.1,283.7,125.6,283.1,125.6z"/>
	<path d="M291.8,125.6h-4.7c-0.6,0-1.1-0.5-1.1-1.1v-4.4c0-0.6,0.5-1.1,1.1-1.1h4.7c0.6,0,1.1,0.5,1.1,1.1v4.4
		C293,125.1,292.5,125.6,291.8,125.6z"/>
	<path d="M300.6,125.6h-4.7c-0.6,0-1.1-0.5-1.1-1.1v-4.4c0-0.6,0.5-1.1,1.1-1.1h4.7c0.6,0,1.1,0.5,1.1,1.1v4.4
		C301.7,125.1,301.2,125.6,300.6,125.6z"/>
	<path d="M310,125.6h-4.7c-0.6,0-1.1-0.5-1.1-1.1v-4.4c0-0.6,0.5-1.1,1.1-1.1h4.7c0.6,0,1.1,0.5,1.1,1.1v4.4
		C311.1,125.1,310.6,125.6,310,125.6z"/>
	<path d="M186.5,117.6h-4.7c-0.6,0-1.1-0.5-1.1-1.1v-4.4c0-0.6,0.5-1.1,1.1-1.1h4.7c0.6,0,1.1,0.5,1.1,1.1v4.4
		C187.6,117.1,187.1,117.6,186.5,117.6z"/>
	<path d="M194.7,117.6H190c-0.6,0-1.1-0.5-1.1-1.1v-4.4c0-0.6,0.5-1.1,1.1-1.1h4.7c0.6,0,1.1,0.5,1.1,1.1v4.4
		C195.8,117.1,195.3,117.6,194.7,117.6z"/>
	<path d="M202.8,117.6H198c-0.6,0-1.1-0.5-1.1-1.1v-4.4c0-0.6,0.5-1.1,1.1-1.1h4.7c0.6,0,1.1,0.5,1.1,1.1v4.4
		C203.9,117.1,203.4,117.6,202.8,117.6z"/>
	<path d="M211.4,117.6h-4.7c-0.6,0-1.1-0.5-1.1-1.1v-4.4c0-0.6,0.5-1.1,1.1-1.1h4.7c0.6,0,1.1,0.5,1.1,1.1v4.4
		C212.5,117.1,212,117.6,211.4,117.6z"/>
	<path d="M219.6,117.6h-4.7c-0.6,0-1.1-0.5-1.1-1.1v-4.4c0-0.6,0.5-1.1,1.1-1.1h4.7c0.6,0,1.1,0.5,1.1,1.1v4.4
		C220.7,117.1,220.2,117.6,219.6,117.6z"/>
	<path d="M228.1,117.6h-4.7c-0.6,0-1.1-0.5-1.1-1.1v-4.4c0-0.6,0.5-1.1,1.1-1.1h4.7c0.6,0,1.1,0.5,1.1,1.1v4.4
		C229.2,117.1,228.7,117.6,228.1,117.6z"/>
	<path d="M237.2,117.6h-4.7c-0.6,0-1.1-0.5-1.1-1.1v-4.4c0-0.6,0.5-1.1,1.1-1.1h4.7c0.6,0,1.1,0.5,1.1,1.1v4.4
		C238.3,117.1,237.8,117.6,237.2,117.6z"/>
	<path d="M245.4,117.6h-4.7c-0.6,0-1.1-0.5-1.1-1.1v-4.4c0-0.6,0.5-1.1,1.1-1.1h4.7c0.6,0,1.1,0.5,1.1,1.1v4.4
		C246.5,117.1,246,117.6,245.4,117.6z"/>
	<path d="M254,117.6h-4.7c-0.6,0-1.1-0.5-1.1-1.1v-4.4c0-0.6,0.5-1.1,1.1-1.1h4.7c0.6,0,1.1,0.5,1.1,1.1v4.4
		C255.1,117.1,254.6,117.6,254,117.6z"/>
	<path d="M262.9,117.6h-4.7c-0.6,0-1.1-0.5-1.1-1.1v-4.4c0-0.6,0.5-1.1,1.1-1.1h4.7c0.6,0,1.1,0.5,1.1,1.1v4.4
		C264,117.1,263.5,117.6,262.9,117.6z"/>
	<path d="M271.6,117.6h-4.7c-0.6,0-1.1-0.5-1.1-1.1v-4.4c0-0.6,0.5-1.1,1.1-1.1h4.7c0.6,0,1.1,0.5,1.1,1.1v4.4
		C272.7,117.1,272.2,117.6,271.6,117.6z"/>
	<path d="M280.6,117.6h-4.7c-0.6,0-1.1-0.5-1.1-1.1v-4.4c0-0.6,0.5-1.1,1.1-1.1h4.7c0.6,0,1.1,0.5,1.1,1.1v4.4
		C281.7,117.1,281.2,117.6,280.6,117.6z"/>
	<path d="M289.1,117.6h-4.7c-0.6,0-1.1-0.5-1.1-1.1v-4.4c0-0.6,0.5-1.1,1.1-1.1h4.7c0.6,0,1.1,0.5,1.1,1.1v4.4
		C290.2,117.1,289.7,117.6,289.1,117.6z"/>
	<path d="M298,117.6h-4.7c-0.6,0-1.1-0.5-1.1-1.1v-4.4c0-0.6,0.5-1.1,1.1-1.1h4.7c0.6,0,1.1,0.5,1.1,1.1v4.4
		C299.1,117.1,298.6,117.6,298,117.6z"/>
	<path d="M194.1,150.3h-4.7c-0.6,0-1.1-0.5-1.1-1.1v-4.4c0-0.6,0.5-1.1,1.1-1.1h4.7c0.6,0,1.1,0.5,1.1,1.1v4.4
		C195.2,149.8,194.7,150.3,194.1,150.3z"/>
	<path d="M186.2,150.3h-4.7c-0.6,0-1.1-0.5-1.1-1.1v-4.4c0-0.6,0.5-1.1,1.1-1.1h4.7c0.6,0,1.1,0.5,1.1,1.1v4.4
		C187.3,149.8,186.8,150.3,186.2,150.3z"/>
	<path d="M310,150.3h-4.7c-0.6,0-1.1-0.5-1.1-1.1v-1.1c0-0.6,0.5-1.1,1.1-1.1h4.7c0.6,0,1.1,0.5,1.1,1.1v1.1
		C311.1,149.8,310.6,150.3,310,150.3z"/>
	<path d="M302,150.3h-4.7c-0.6,0-1.1-0.5-1.1-1.1v-1.1c0-0.6,0.5-1.1,1.1-1.1h4.7c0.6,0,1.1,0.5,1.1,1.1v1.1
		C303.1,149.8,302.6,150.3,302,150.3z"/>
	<path d="M302,146.5h-4.7c-0.6,0-1.1-0.5-1.1-1.1v-1.1c0-0.6,0.5-1.1,1.1-1.1h4.7c0.6,0,1.1,0.5,1.1,1.1v1.1
		C303.1,146,302.6,146.5,302,146.5z"/>
	<path d="M293.6,150.3h-4.7c-0.6,0-1.1-0.5-1.1-1.1v-1.1c0-0.6,0.5-1.1,1.1-1.1h4.7c0.6,0,1.1,0.5,1.1,1.1v1.1
		C294.8,149.8,294.3,150.3,293.6,150.3z"/>
	<path d="M202.9,109.5h-4.7c-0.6,0-1.1-0.5-1.1-1.1v-1.1c0-0.6,0.5-1.1,1.1-1.1h4.7c0.6,0,1.1,0.5,1.1,1.1v1.1
		C204,109,203.5,109.5,202.9,109.5z"/>
	<path d="M194.9,109.5h-4.7c-0.6,0-1.1-0.5-1.1-1.1v-1.1c0-0.6,0.5-1.1,1.1-1.1h4.7c0.6,0,1.1,0.5,1.1,1.1v1.1
		C196,109,195.5,109.5,194.9,109.5z"/>
	<path d="M186.5,109.5h-4.7c-0.6,0-1.1-0.5-1.1-1.1v-1.1c0-0.6,0.5-1.1,1.1-1.1h4.7c0.6,0,1.1,0.5,1.1,1.1v1.1
		C187.6,109,187.1,109.5,186.5,109.5z"/>
	<path d="M228.2,109.5h-4.7c-0.6,0-1.1-0.5-1.1-1.1v-1.1c0-0.6,0.5-1.1,1.1-1.1h4.7c0.6,0,1.1,0.5,1.1,1.1v1.1
		C229.3,109,228.8,109.5,228.2,109.5z"/>
	<path d="M219.8,109.5h-4.7c-0.6,0-1.1-0.5-1.1-1.1v-1.1c0-0.6,0.5-1.1,1.1-1.1h4.7c0.6,0,1.1,0.5,1.1,1.1v1.1
		C220.9,109,220.4,109.5,219.8,109.5z"/>
	<path d="M211.4,109.5h-4.7c-0.6,0-1.1-0.5-1.1-1.1v-1.1c0-0.6,0.5-1.1,1.1-1.1h4.7c0.6,0,1.1,0.5,1.1,1.1v1.1
		C212.5,109,212,109.5,211.4,109.5z"/>
	<path d="M252.9,109.5h-4.7c-0.6,0-1.1-0.5-1.1-1.1v-1.1c0-0.6,0.5-1.1,1.1-1.1h4.7c0.6,0,1.1,0.5,1.1,1.1v1.1
		C254,109,253.5,109.5,252.9,109.5z"/>
	<path d="M244.9,109.5h-4.7c-0.6,0-1.1-0.5-1.1-1.1v-1.1c0-0.6,0.5-1.1,1.1-1.1h4.7c0.6,0,1.1,0.5,1.1,1.1v1.1
		C246,109,245.5,109.5,244.9,109.5z"/>
	<path d="M236.5,109.5h-4.7c-0.6,0-1.1-0.5-1.1-1.1v-1.1c0-0.6,0.5-1.1,1.1-1.1h4.7c0.6,0,1.1,0.5,1.1,1.1v1.1
		C237.6,109,237.1,109.5,236.5,109.5z"/>
	<path d="M277.4,109.5h-4.7c-0.6,0-1.1-0.5-1.1-1.1v-1.1c0-0.6,0.5-1.1,1.1-1.1h4.7c0.6,0,1.1,0.5,1.1,1.1v1.1
		C278.5,109,278,109.5,277.4,109.5z"/>
	<path d="M269.4,109.5h-4.7c-0.6,0-1.1-0.5-1.1-1.1v-1.1c0-0.6,0.5-1.1,1.1-1.1h4.7c0.6,0,1.1,0.5,1.1,1.1v1.1
		C270.5,109,270,109.5,269.4,109.5z"/>
	<path d="M261,109.5h-4.7c-0.6,0-1.1-0.5-1.1-1.1v-1.1c0-0.6,0.5-1.1,1.1-1.1h4.7c0.6,0,1.1,0.5,1.1,1.1v1.1
		C262.1,109,261.6,109.5,261,109.5z"/>
	<path d="M302,109.5h-4.7c-0.6,0-1.1-0.5-1.1-1.1v-1.1c0-0.6,0.5-1.1,1.1-1.1h4.7c0.6,0,1.1,0.5,1.1,1.1v1.1
		C303.1,109,302.6,109.5,302,109.5z"/>
	<path d="M293.6,109.5h-4.7c-0.6,0-1.1-0.5-1.1-1.1v-1.1c0-0.6,0.5-1.1,1.1-1.1h4.7c0.6,0,1.1,0.5,1.1,1.1v1.1
		C294.8,109,294.3,109.5,293.6,109.5z"/>
	<path d="M285.6,109.5h-4.7c-0.6,0-1.1-0.5-1.1-1.1v-1.1c0-0.6,0.5-1.1,1.1-1.1h4.7c0.6,0,1.1,0.5,1.1,1.1v1.1
		C286.7,109,286.2,109.5,285.6,109.5z"/>
	<path d="M310,109.5h-4.7c-0.6,0-1.1-0.5-1.1-1.1v-1.1c0-0.6,0.5-1.1,1.1-1.1h4.7c0.6,0,1.1,0.5,1.1,1.1v1.1
		C311.1,109,310.6,109.5,310,109.5z"/>
	<path d="M307.7,95.8H182.2c-1,0-1.9-0.8-1.9-1.9v-3h129.5v2.8C309.8,94.8,308.9,95.8,307.7,95.8z"/>
	<path fill="#E6E7E8" d="M318.5,90.9H172c-0.8,0-1.5-0.5-1.9-1.3l-13.8-27.9c-0.9-1.9,0.1-4.3,1.9-4.3h173.6c1.8,0,2.8,2.4,1.9,4.3
		l-13.4,27.9C320,90.4,319.3,90.9,318.5,90.9z"/>
	<polygon points="314.4,87.7 174.6,87.7 163.2,62.5 326.3,62.5 	"/>
	<polygon fill="#414042" points="314.4,87.7 163.2,62.5 326.1,62.5 	"/>
	<rect x="158.2" y="57.4" fill="#FFFFFF" width="173.5" height="1.9"/>
	<rect x="174.6" y="87.7" fill="#FFFFFF" width="139.6" height="0.9"/>
</g>
<g>
	<path fill="#1E1E1F" d="M229.3,219.3c0,0,1.4-2.7,2.1-2.6l24.6,10.5l17.1,5.9c0,0,4,1.4,6.7,3.6l14.7,12.6c0,0,3.4,3.4,0.6,3.7
		c0,0-3,1.4-6.8-1.8c0,0-4.7-7.5-8.4-10.9c-0.3-0.3-0.5-0.5-0.8-0.8c-0.9-1-4-3.8-12.5-6.5c0,0-10.5-4-16-4.7l-6.1-1.1L229.3,219.3z
		"/>
	<path fill="#1E1E1F" d="M295.8,233.4c0,0,1.5,2.3,0.6,4.3l-14.4-1.6c-0.5-0.1-0.9-0.1-1.4-0.3l-1.5-0.4l-1-0.3
		c0,0-26.5-8.8-34.1-6.8l-10.2,3.6c0,0-3.7,2.3-6.9,0.9c0,0-5.8-2.7-0.8-3.9l16.4-2.9l9.5-0.6c0,0,22.4,5,24,5.1
		C277.8,230.5,295.8,233.4,295.8,233.4z"/>
	<path fill="#1E1E1F" d="M300.9,233.5c0,0,0.3-0.2-2.5-1.5c0,0-9.9-4.9-18-6.4c0,0-5.2-1.3-12.4-1.1c0,0-5,0.1-9.8-2.7
		c0,0-5.7-4.7-19.1-6.8c0,0-6.1-0.8-8-0.8l-2.8-0.1c0,0-0.3,0.1-0.7,0.6l-0.9,2.3c0,0-0.4,0.6,0.4,0.9c0,0,0.7,0.9,0.4,2.5l-0.8,5.1
		c0,0-0.1,2.2,0.3,3.2c0,0,0.3,4.1,15.9,7.6c0,0,4,0.8,5.2,0.8c0,0,2.7,0.4,5.3-2.6c0,0,3.3-3.7,4-4.7c0,0,2-3.3,4.5-2.7
		c0,0,3.3,0.3,3.4,5.8c0,0,0.2,2.9,1.3,6.3c0,0,0.5,2.8,3,3.9c0,0,6.5,3,9.4,3.4c0,0,10.5,2.7,14,0.9c0,0,2.2-0.2,4.5-7.4
		c0,0,0.7-2.7,2.9-3l0.5-1.9L300.9,233.5z M250.8,234.4c-3.6,2.4-15.8-2-15.8-2c-4.6-1.3-6.3-4.5-6.3-4.5c-1-2.3,0.5-6.2,0.5-6.2
		c1-5.7,3.7-5.4,3.7-5.4l3.9,0.1c7.8,0.5,17.3,4.9,17.3,4.9c3.5,1.7,3.3,3.4,3.3,3.4C256.9,228.8,250.8,234.4,250.8,234.4z
		 M292.1,245.8c-1,0.8-6.9-0.1-6.9-0.1c-4,0-13.8-3.7-13.8-3.7c-4.6-2-4.3-8.7-4.3-8.7c-0.8-8.1,3.4-7.3,3.4-7.3
		c2.8-0.2,9.3,1.2,9.3,1.2c5.1,0.9,12.5,4,12.5,4c4.9,1.7,4,5.3,4,5.3C295.4,243,292.1,245.8,292.1,245.8z"/>
	<path opacity="0.51" fill="#FFFFFF" d="M232.8,216.3c0,0-2.7-0.2-3.7,5.4c0,0-1.5,3.9-0.5,6.2c0,0,1.7,3.2,6.3,4.5
		c0,0,12.3,4.4,15.8,2c0,0,6.2-5.6,6.6-9.8c0,0,0.1-1.7-3.3-3.4c0,0-9.5-4.4-17.3-4.9L232.8,216.3z"/>
	<path opacity="0.51" fill="#FFFFFF" d="M279.9,227.3c0,0-6.6-1.4-9.3-1.2c0,0-4.2-0.8-3.4,7.3c0,0-0.3,6.7,4.3,8.7
		c0,0,9.8,3.8,13.8,3.7c0,0,5.9,0.9,6.9,0.1c0,0,3.3-2.8,4.3-9.4c0,0,0.8-3.5-4-5.3C292.4,231.3,285,228.2,279.9,227.3z"/>
	<path opacity="0.27" fill="#FFFFFF" d="M276.9,226.7l6,18.8c0,0,8.3,1.4,9.3,0.3c0,0,3.2-3.4,4.2-8.2c0,0,0.8-2.6-0.9-4.4
		c0,0-0.7-1-3.1-2C292.4,231.3,283.4,227.2,276.9,226.7z"/>
	<path opacity="0.27" fill="#FFFFFF" d="M237.5,216.5l2.9,17.5c0,0,7.7,2.2,10.3,0.5c0,0,6.2-5.3,6.6-9.8c0,0-0.2-1.9-3.3-3.4
		C254.1,221.3,243.2,216.7,237.5,216.5z"/>
</g>
</svg>
