<?xml version="1.0" encoding="utf-8"?>
<!-- Generator: Adobe Illustrator 18.1.0, SVG Export Plug-In . SVG Version: 6.00 Build 0)  -->
<!DOCTYPE svg PUBLIC "-//W3C//DTD SVG 1.1//EN" "http://www.w3.org/Graphics/SVG/1.1/DTD/svg11.dtd">
<svg version="1.1" xmlns="http://www.w3.org/2000/svg" xmlns:xlink="http://www.w3.org/1999/xlink" x="0px" y="0px"
	 viewBox="0 0 216 216" enable-background="new 0 0 216 216" xml:space="preserve">
<g id="Layer_1">
	<g>
		<path fill="#FFFFFF" d="M32,177.6c0.1,0.2,0.2,0.4,0.2,0.6c0.1-0.2,0.2-0.4,0.2-0.6s0.2-0.4,0.3-0.6l5.7-10.3
			c0.1-0.2,0.2-0.3,0.3-0.3c0.1,0,0.3-0.1,0.5-0.1h1.7v16.7h-2v-12.3c0-0.2,0-0.3,0-0.5s0-0.4,0-0.6l-5.7,10.5
			c-0.2,0.3-0.5,0.5-0.8,0.5h-0.3c-0.3,0-0.6-0.2-0.8-0.5l-5.9-10.5c0,0.2,0,0.4,0,0.6s0,0.4,0,0.5V183h-2v-16.7h1.7
			c0.2,0,0.3,0,0.5,0.1c0.1,0,0.2,0.2,0.3,0.3l5.8,10.3C31.8,177.2,31.9,177.4,32,177.6z"/>
		<path fill="#FFFFFF" d="M70.4,183.1h-1.8c-0.2,0-0.4,0-0.5-0.2c-0.1-0.1-0.2-0.2-0.3-0.4l-1.6-4.1h-7.5l-1.6,4.1
			c0,0.2-0.2,0.3-0.3,0.4c-0.1,0.1-0.3,0.2-0.5,0.2h-1.7l6.7-16.7h2.3L70.4,183.1z M59.4,176.9h6.2l-2.6-6.8c-0.2-0.4-0.3-1-0.5-1.6
			c-0.1,0.3-0.2,0.6-0.3,0.9c-0.1,0.3-0.2,0.5-0.2,0.7L59.4,176.9z"/>
		<path fill="#FFFFFF" d="M86.7,176.1v7h-2.2v-16.7h4.7c1,0,2,0.1,2.7,0.3s1.4,0.5,1.9,0.9c0.5,0.4,0.9,0.9,1.1,1.5
			c0.2,0.6,0.3,1.2,0.3,1.9c0,0.6-0.1,1.2-0.3,1.7s-0.5,1-0.8,1.4c-0.3,0.4-0.8,0.8-1.3,1c-0.5,0.3-1.1,0.5-1.7,0.7
			c0.3,0.2,0.5,0.4,0.7,0.7l4.9,6.6h-2c-0.4,0-0.7-0.2-0.9-0.5l-4.4-6c-0.1-0.2-0.3-0.3-0.4-0.4s-0.4-0.1-0.7-0.1H86.7z M86.7,174.4
			h2.4c0.7,0,1.2-0.1,1.7-0.2c0.5-0.2,0.9-0.4,1.3-0.7c0.3-0.3,0.6-0.7,0.8-1c0.2-0.4,0.3-0.8,0.3-1.4c0-1-0.3-1.7-1-2.3
			c-0.7-0.5-1.6-0.8-2.9-0.8h-2.5L86.7,174.4L86.7,174.4z"/>
		<path fill="#FFFFFF" d="M121.8,166.3v1.9h-5.4v14.9h-2.3v-14.9h-5.4v-1.9H121.8z"/>
		<path fill="#FFFFFF" d="M138.5,183.1h-2.3v-16.7h2.3V183.1z"/>
		<path fill="#FFFFFF" d="M156.4,166.4c0.1,0,0.2,0.2,0.3,0.3l9.7,12.6c0-0.2,0-0.4,0-0.6s0-0.4,0-0.5v-11.9h2v16.7h-1.2
			c-0.2,0-0.3,0-0.5-0.1s-0.2-0.2-0.3-0.3l-9.7-12.6c0,0.2,0,0.4,0,0.6s0,0.3,0,0.5v12h-2v-16.7h1.2
			C156.1,166.3,156.3,166.4,156.4,166.4z"/>
		<path fill="#FFFFFF" d="M194.4,166.3v1.9h-8.1v5.6h6.5v1.8h-6.5v5.7h8.1v1.9h-10.3v-16.7L194.4,166.3L194.4,166.3z"/>
	</g>
	<path fill="#FFFFFF" d="M167.4,139.4H55.9V27.5h111.5V139.4z M59,136.4h105.5V30.5H59V136.4z"/>
	<polygon fill="#B0E1DF" points="99,109.6 88.2,109.6 88,59.6 99,75.3 	"/>
	<polygon fill="#F16370" points="135.5,104.5 121.4,85.7 121.4,85.7 135.5,60.6 	"/>
	<g>
		<path fill="#58595B" d="M135,56.9L135,56.9c0.2,0,0.3,0,0.5,0H135z"/>
	</g>
	<g>
		<path fill="#FFFFFF" d="M32,177.6c0.1,0.2,0.2,0.4,0.2,0.6c0.1-0.2,0.2-0.4,0.2-0.6s0.2-0.4,0.3-0.6l5.7-10.3
			c0.1-0.2,0.2-0.3,0.3-0.3c0.1,0,0.3-0.1,0.5-0.1h1.7v16.7h-2v-12.3c0-0.2,0-0.3,0-0.5s0-0.4,0-0.6l-5.7,10.5
			c-0.2,0.3-0.5,0.5-0.8,0.5h-0.3c-0.3,0-0.6-0.2-0.8-0.5l-5.9-10.5c0,0.2,0,0.4,0,0.6s0,0.4,0,0.5V183h-2v-16.7h1.7
			c0.2,0,0.3,0,0.5,0.1c0.1,0,0.2,0.2,0.3,0.3l5.8,10.3C31.8,177.2,31.9,177.4,32,177.6z"/>
		<path fill="#FFFFFF" d="M70.4,183.1h-1.8c-0.2,0-0.4,0-0.5-0.2c-0.1-0.1-0.2-0.2-0.3-0.4l-1.6-4.1h-7.5l-1.6,4.1
			c0,0.2-0.2,0.3-0.3,0.4c-0.1,0.1-0.3,0.2-0.5,0.2h-1.7l6.7-16.7h2.3L70.4,183.1z M59.4,176.9h6.2l-2.6-6.8c-0.2-0.4-0.3-1-0.5-1.6
			c-0.1,0.3-0.2,0.6-0.3,0.9c-0.1,0.3-0.2,0.5-0.2,0.7L59.4,176.9z"/>
		<path fill="#FFFFFF" d="M86.7,176.1v7h-2.2v-16.7h4.7c1,0,2,0.1,2.7,0.3c0.8,0.2,1.4,0.5,1.9,0.9c0.5,0.4,0.9,0.9,1.1,1.5
			c0.2,0.6,0.3,1.2,0.3,1.9c0,0.6-0.1,1.2-0.3,1.7s-0.5,1-0.8,1.4c-0.3,0.4-0.8,0.8-1.3,1c-0.5,0.3-1.1,0.5-1.7,0.7
			c0.3,0.2,0.5,0.4,0.7,0.7l4.9,6.6h-2c-0.4,0-0.7-0.2-0.9-0.5l-4.4-6c-0.1-0.2-0.3-0.3-0.4-0.4s-0.4-0.1-0.7-0.1H86.7z M86.7,174.4
			h2.4c0.7,0,1.2-0.1,1.7-0.2c0.5-0.2,0.9-0.4,1.3-0.7c0.3-0.3,0.6-0.7,0.8-1c0.2-0.4,0.3-0.8,0.3-1.4c0-1-0.3-1.7-1-2.3
			c-0.7-0.5-1.6-0.8-2.9-0.8h-2.5L86.7,174.4L86.7,174.4z"/>
		<path fill="#FFFFFF" d="M121.8,166.3v1.9h-5.4v14.9h-2.3v-14.9h-5.4v-1.9H121.8z"/>
		<path fill="#FFFFFF" d="M138.5,183.1h-2.3v-16.7h2.3V183.1z"/>
		<path fill="#FFFFFF" d="M156.4,166.4c0.1,0,0.2,0.2,0.3,0.3l9.7,12.6c0-0.2,0-0.4,0-0.6s0-0.4,0-0.5v-11.9h2v16.7h-1.2
			c-0.2,0-0.3,0-0.5-0.1c-0.1-0.1-0.2-0.2-0.3-0.3l-9.7-12.6c0,0.2,0,0.4,0,0.6s0,0.3,0,0.5v12h-2v-16.7h1.2
			C156.1,166.3,156.3,166.4,156.4,166.4z"/>
		<path fill="#FFFFFF" d="M194.4,166.3v1.9h-8.1v5.6h6.5v1.8h-6.5v5.7h8.1v1.9h-10.3v-16.7L194.4,166.3L194.4,166.3z"/>
	</g>
	<g>
		<path fill="#FFFFFF" d="M135,57.1c-0.2,0-0.3,0-0.5,0c-0.1,0-0.2,0-0.3,0.1c-0.2,0.1-0.4,0.3-0.6,0.6L119.3,83l-18.8-25.2
			c-0.2-0.3-0.4-0.5-0.6-0.6c-0.2-0.1-0.5-0.1-0.8-0.1h-1.9v13.7l-7.6-13c-0.2-0.3-0.4-0.5-0.6-0.6c-0.2-0.1-0.5-0.1-0.8-0.1h-2.6
			v52.7h3.3V64.9c0-0.7,0-1.3-0.1-2.1l8.4,14.5v32.4h3.3V83l9.6,16.6c0.4,0.7,0.9,1,1.5,1h0.6c0.7,0,1.2-0.3,1.5-1l6-10.6l15,20
			c0.3,0.5,0.8,0.7,1.4,0.7h1.8V57.1H135z M112.8,94.4c-0.2,0.3-0.4,0.7-0.5,1.1c-0.2,0.4-0.3,0.8-0.5,1.2c-0.3-0.8-0.6-1.5-1-2.2
			l-10.4-17.9V65.4c0-0.7,0-1.4-0.1-2.1l17.1,22.9L112.8,94.4z M134.4,62.8c-0.1,0.7-0.1,1.4-0.1,2V103l-12.8-17.2L134.4,62.8z"/>
	</g>
</g>
<g id="Layer_2">
</g>
</svg>
