<?xml version="1.0" encoding="utf-8"?>
<!-- Generator: Adobe Illustrator 18.1.0, SVG Export Plug-In . SVG Version: 6.00 Build 0)  -->
<!DOCTYPE svg PUBLIC "-//W3C//DTD SVG 1.1//EN" "http://www.w3.org/Graphics/SVG/1.1/DTD/svg11.dtd">
<svg version="1.1" id="Layer_1" xmlns="http://www.w3.org/2000/svg" xmlns:xlink="http://www.w3.org/1999/xlink" x="0px" y="0px"
	 viewBox="0.9 0 280 280" enable-background="new 0.9 0 280 280" xml:space="preserve">
<g>
	<path fill="#58595B" d="M35.2,239.8c0.1,0.3,0.2,0.6,0.3,0.8c0.1-0.3,0.2-0.6,0.3-0.8c0.1-0.3,0.3-0.5,0.4-0.8l7.6-13.9
		c0.2-0.3,0.3-0.4,0.4-0.4s0.4-0.1,0.6-0.1h2.2v22.6h-2.7v-16.6c0-0.2,0-0.5,0-0.7c0-0.3,0.1-0.5,0.1-0.8l-7.7,14.1
		c-0.3,0.5-0.6,0.7-1.1,0.7h-0.4c-0.5,0-0.8-0.3-1.1-0.7L26.3,229c0.1,0.3,0.1,0.5,0.1,0.8s0,0.5,0,0.7V247h-2.7v-22.6h2.2
		c0.3,0,0.5,0.1,0.6,0.1c0.2,0.1,0.3,0.2,0.4,0.4l7.8,13.9C35,239.2,35.1,239.5,35.2,239.8z"/>
	<path fill="#58595B" d="M87.1,247.1h-2.4c-0.3,0-0.5-0.1-0.7-0.2s-0.3-0.3-0.4-0.5l-2.1-5.5H71.4l-2.1,5.5
		c-0.1,0.2-0.2,0.4-0.4,0.5s-0.4,0.2-0.7,0.2h-2.3l9-22.6H78L87.1,247.1z M72.2,238.7h8.4l-3.5-9.2c-0.2-0.6-0.5-1.3-0.7-2.1
		c-0.1,0.4-0.2,0.8-0.4,1.2c-0.1,0.4-0.2,0.7-0.3,0.9L72.2,238.7z"/>
	<path fill="#58595B" d="M109,237.7v9.4h-3v-22.6h6.4c1.4,0,2.7,0.2,3.7,0.4c1,0.3,1.9,0.7,2.6,1.2c0.7,0.6,1.2,1.2,1.5,2
		c0.3,0.8,0.5,1.6,0.5,2.6c0,0.8-0.1,1.6-0.4,2.2c-0.3,0.7-0.6,1.3-1.1,1.9c-0.5,0.6-1,1-1.8,1.4c-0.7,0.4-1.5,0.7-2.3,0.9
		c0.4,0.2,0.7,0.5,1,0.9l6.6,8.9H120c-0.6,0-1-0.2-1.2-0.6l-5.9-8.1c-0.2-0.3-0.4-0.4-0.6-0.5c-0.2-0.1-0.5-0.2-0.9-0.2H109z
		 M109,235.5h3.2c0.9,0,1.7-0.1,2.3-0.3c0.7-0.2,1.2-0.5,1.7-0.9c0.5-0.4,0.8-0.9,1-1.4c0.2-0.6,0.4-1.1,0.4-1.8
		c0-1.4-0.5-2.3-1.4-3.1c-0.9-0.7-2.2-1-4-1h-3.3L109,235.5L109,235.5z"/>
	<path fill="#58595B" d="M156.3,224.5v2.5h-7.3v20H146v-20h-7.3v-2.5H156.3z"/>
	<path fill="#58595B" d="M178.9,247.1h-3.1v-22.6h3.1V247.1z"/>
	<path fill="#58595B" d="M202.9,224.6c0.2,0.1,0.3,0.2,0.5,0.4l13.1,17c-0.1-0.3-0.1-0.5-0.1-0.8c0-0.3,0-0.5,0-0.7v-16h2.7v22.6
		h-1.6c-0.3,0-0.5-0.1-0.6-0.1c-0.2-0.1-0.3-0.2-0.5-0.4l-13.1-17c0,0.3,0.1,0.5,0.1,0.8s0,0.5,0,0.7v16.1h-2.7v-22.6h1.6
		C202.6,224.5,202.8,224.6,202.9,224.6z"/>
	<path fill="#58595B" d="M254.3,224.5v2.5h-10.9v7.5h8.8v2.4h-8.8v7.7h10.9v2.5h-13.9v-22.6L254.3,224.5L254.3,224.5z"/>
</g>
<path fill="#58595B" d="M217.9,188.2H67.5V37.4h150.3V188.2z M71.6,184.2h142.2V41.5H71.6V184.2z"/>
<polygon fill="#FEF6A3" points="125.6,148 111,148 110.7,80.6 125.6,101.8 "/>
<polygon fill="#BE6696" points="174.9,141.2 155.8,115.9 155.8,115.9 174.9,82 "/>
<g>
	<path fill="#58595B" d="M143.5,130.4c0.2-0.5,0.4-1,0.6-1.6c0.2-0.5,0.5-1,0.7-1.5L172.8,78c0.3-0.4,0.5-0.7,0.8-0.8
		c0.3-0.1,0.6-0.2,1.1-0.2h3.6v69.7l-4.5-1.9V87.4c0-0.9,0.1-1.8,0.2-2.8l-28,49.7c-0.5,0.9-1.1,1.3-2,1.3h-0.8
		c-0.8,0-1.5-0.4-2-1.3l-28.7-49.7c0.1,1,0.2,1.9,0.2,2.8V148h-4.5V77h3.5c0.5,0,0.8,0.1,1.1,0.2c0.3,0.1,0.6,0.4,0.8,0.8l28.7,49.4
		C142.8,128.3,143.2,129.3,143.5,130.4z"/>
</g>
<g>
	<path fill="#58595B" d="M174.1,77L174.1,77c0.2,0,0.4,0,0.7,0H174.1z"/>
</g>
<g>
	<path fill="#58595B" d="M35.2,239.8c0.1,0.3,0.2,0.6,0.3,0.8c0.1-0.3,0.2-0.6,0.3-0.8c0.1-0.3,0.3-0.5,0.4-0.8l7.6-13.9
		c0.2-0.3,0.3-0.4,0.4-0.4s0.4-0.1,0.6-0.1h2.2v22.6h-2.7v-16.6c0-0.2,0-0.5,0-0.7c0-0.3,0.1-0.5,0.1-0.8l-7.7,14.1
		c-0.3,0.5-0.6,0.7-1.1,0.7h-0.4c-0.5,0-0.8-0.3-1.1-0.7L26.3,229c0.1,0.3,0.1,0.5,0.1,0.8s0,0.5,0,0.7V247h-2.7v-22.6h2.2
		c0.3,0,0.5,0.1,0.6,0.1c0.2,0.1,0.3,0.2,0.4,0.4l7.8,13.9C35,239.2,35.1,239.5,35.2,239.8z"/>
	<path fill="#58595B" d="M87.1,247.1h-2.4c-0.3,0-0.5-0.1-0.7-0.2s-0.3-0.3-0.4-0.5l-2.1-5.5H71.4l-2.1,5.5
		c-0.1,0.2-0.2,0.4-0.4,0.5s-0.4,0.2-0.7,0.2h-2.3l9-22.6H78L87.1,247.1z M72.2,238.7h8.4l-3.5-9.2c-0.2-0.6-0.5-1.3-0.7-2.1
		c-0.1,0.4-0.2,0.8-0.4,1.2c-0.1,0.4-0.2,0.7-0.3,0.9L72.2,238.7z"/>
	<path fill="#58595B" d="M109,237.7v9.4h-3v-22.6h6.4c1.4,0,2.7,0.2,3.7,0.4c1,0.3,1.9,0.7,2.6,1.2c0.7,0.6,1.2,1.2,1.5,2
		c0.3,0.8,0.5,1.6,0.5,2.6c0,0.8-0.1,1.6-0.4,2.2c-0.3,0.7-0.6,1.3-1.1,1.9c-0.5,0.6-1,1-1.8,1.4c-0.7,0.4-1.5,0.7-2.3,0.9
		c0.4,0.2,0.7,0.5,1,0.9l6.6,8.9H120c-0.6,0-1-0.2-1.2-0.6l-5.9-8.1c-0.2-0.3-0.4-0.4-0.6-0.5c-0.2-0.1-0.5-0.2-0.9-0.2H109z
		 M109,235.5h3.2c0.9,0,1.7-0.1,2.3-0.3c0.7-0.2,1.2-0.5,1.7-0.9c0.5-0.4,0.8-0.9,1-1.4c0.2-0.6,0.4-1.1,0.4-1.8
		c0-1.4-0.5-2.3-1.4-3.1c-0.9-0.7-2.2-1-4-1h-3.3L109,235.5L109,235.5z"/>
	<path fill="#58595B" d="M156.3,224.5v2.5h-7.3v20H146v-20h-7.3v-2.5H156.3z"/>
	<path fill="#58595B" d="M178.9,247.1h-3.1v-22.6h3.1V247.1z"/>
	<path fill="#58595B" d="M202.9,224.6c0.2,0.1,0.3,0.2,0.5,0.4l13.1,17c-0.1-0.3-0.1-0.5-0.1-0.8c0-0.3,0-0.5,0-0.7v-16h2.7v22.6
		h-1.6c-0.3,0-0.5-0.1-0.6-0.1c-0.2-0.1-0.3-0.2-0.5-0.4l-13.1-17c0,0.3,0.1,0.5,0.1,0.8s0,0.5,0,0.7v16.1h-2.7v-22.6h1.6
		C202.6,224.5,202.8,224.6,202.9,224.6z"/>
	<path fill="#58595B" d="M254.3,224.5v2.5h-10.9v7.5h8.8v2.4h-8.8v7.7h10.9v2.5h-13.9v-22.6L254.3,224.5L254.3,224.5z"/>
</g>
<g>
	<path fill="#58595B" d="M174.7,77c-0.3,0-0.5,0-0.7,0.1c-0.2,0.1-0.3,0.1-0.5,0.1c-0.3,0.1-0.5,0.4-0.8,0.8l-19.2,34l-25.4-34
		c-0.3-0.4-0.6-0.7-0.8-0.8c-0.3-0.1-0.6-0.2-1.1-0.2h-2.5v18.5l-10.2-17.5c-0.3-0.4-0.5-0.7-0.8-0.8c-0.3-0.1-0.7-0.2-1.1-0.2h-3.5
		v71h4.5V87.4c0-0.9-0.1-1.8-0.2-2.8l11.3,19.6V148h4.5v-36l12.9,22.4c0.5,0.9,1.2,1.3,2,1.3h0.8c0.9,0,1.6-0.4,2-1.3l8.1-14.4
		l20.2,27c0.5,0.7,1.1,1,1.9,1h2.4V77H174.7z M144.9,127.3c-0.3,0.5-0.5,0.9-0.7,1.5c-0.2,0.5-0.4,1-0.6,1.6c-0.4-1.1-0.8-2.1-1.3-3
		l-14-24.2V88.2c0-0.9-0.1-1.9-0.2-2.9l23.1,30.8L144.9,127.3z M173.9,84.7c-0.1,1-0.2,1.9-0.2,2.8v51.4l-17.3-23.1L173.9,84.7z"/>
</g>
</svg>
