<?xml version="1.0" encoding="utf-8"?>
<!-- Generator: Adobe Illustrator 18.1.0, SVG Export Plug-In . SVG Version: 6.00 Build 0)  -->
<!DOCTYPE svg PUBLIC "-//W3C//DTD SVG 1.1//EN" "http://www.w3.org/Graphics/SVG/1.1/DTD/svg11.dtd">
<svg version="1.1" id="Layer_1" xmlns="http://www.w3.org/2000/svg" xmlns:xlink="http://www.w3.org/1999/xlink" x="0px" y="0px"
	 viewBox="0 0 560 560" enable-background="new 0 0 560 560" xml:space="preserve">
<path fill="#58595B" d="M476.2,467.9H84.1V74.8h391.8v393.1H476.2z M94.7,457.5h370.7v-372H94.7V457.5z"/>
<polygon fill="#FEF6A3" points="235.5,363.1 197.5,363.1 196.7,187.4 235.5,242.7 "/>
<polygon fill="#BE6696" points="364.1,345.4 314.3,279.5 314.3,279.5 364.1,191.1 "/>
<g>
	<path fill="#58595B" d="M282.2,317.3c0.5-1.3,1-2.6,1.6-4.2c0.5-1.3,1.3-2.6,1.8-3.9l73-128.5c0.8-1,1.3-1.8,2.1-2.1
		c0.8-0.3,1.6-0.5,2.9-0.5h9.4v181.7l-11.7-5V205.2c0-2.3,0.3-4.7,0.5-7.3l-73,129.6c-1.3,2.3-2.9,3.4-5.2,3.4h-2.1
		c-2.1,0-3.9-1-5.2-3.4l-74.8-129.6c0.3,2.6,0.5,5,0.5,7.3v158h-11.7V178h9.1c1.3,0,2.1,0.3,2.9,0.5c0.8,0.3,1.6,1,2.1,2.1
		l74.8,128.8C280.4,311.8,281.4,314.4,282.2,317.3z"/>
</g>
<g>
	<path fill="#58595B" d="M362,178L362,178c0.5,0,1,0,1.8,0H362z"/>
</g>
<g>
	<path fill="#58595B" d="M363.5,178c-0.8,0-1.3,0-1.8,0.3c-0.5,0.3-0.8,0.3-1.3,0.3c-0.8,0.3-1.3,1-2.1,2.1l-50.1,88.6L242,180.6
		c-0.8-1-1.6-1.8-2.1-2.1c-0.8-0.3-1.6-0.5-2.9-0.5h-6.5v48.2L204,180.6c-0.8-1-1.3-1.8-2.1-2.1s-1.8-0.5-2.9-0.5h-9.1v185.1h11.7
		v-158c0-2.3-0.3-4.7-0.5-7.3l29.5,51.1v114.2h11.7v-93.9l33.6,58.4c1.3,2.3,3.1,3.4,5.2,3.4h2.1c2.3,0,4.2-1,5.2-3.4l21.1-37.5
		l52.7,70.4c1.3,1.8,2.9,2.6,5,2.6h6.3V178H363.5z M285.8,309.2c-0.8,1.3-1.3,2.3-1.8,3.9c-0.5,1.3-1,2.6-1.6,4.2
		c-1-2.9-2.1-5.5-3.4-7.8l-36.5-63.1v-39.1c0-2.3-0.3-5-0.5-7.6l60.2,80.3L285.8,309.2z M361.4,198.1c-0.3,2.6-0.5,5-0.5,7.3v134
		l-45.1-60.2L361.4,198.1z"/>
</g>
</svg>
